<svg width="211" height="211" viewBox="0 0 211 211" fill="none" xmlns="http://www.w3.org/2000/svg">
<g filter="url(#filter0_f_40000272_691)">
<rect x="48.2871" y="48.2871" width="114.284" height="114.284" rx="57.1419" fill="url(#paint0_linear_40000272_691)"/>
<circle cx="95.8328" cy="114.742" r="47.5457" fill="url(#paint1_radial_40000272_691)" style="mix-blend-mode:soft-light"/>
</g>
<foreignObject x="55.6587" y="55.6592" width="99.5405" height="99.54"><div xmlns="http://www.w3.org/1999/xhtml" style="backdrop-filter:blur(1.11px);clip-path:url(#bgblur_1_40000272_691_clip_path);height:100%;width:100%"></div></foreignObject><g data-figma-bg-blur-radius="2.22461">
<g clip-path="url(#clip0_40000272_691)">
<rect x="57.8833" y="57.8838" width="95.0911" height="95.0911" rx="47.5456" fill="url(#paint2_linear_40000272_691)"/>
<path d="M136.57 105.45C136.57 105.523 136.57 105.597 136.564 105.668C136.561 105.734 136.556 105.799 136.55 105.863C136.547 105.896 136.544 105.927 136.54 105.958C136.536 106.004 136.53 106.048 136.522 106.093C136.519 106.123 136.515 106.152 136.509 106.181C136.504 106.209 136.5 106.237 136.494 106.264C136.487 106.31 136.476 106.356 136.466 106.402C136.463 106.419 136.458 106.437 136.452 106.455C136.444 106.501 136.432 106.547 136.418 106.593C136.352 106.844 136.263 107.086 136.154 107.317C136.135 107.359 136.114 107.4 136.092 107.442C136.053 107.521 136.01 107.598 135.966 107.674C135.946 107.709 135.926 107.743 135.903 107.777C135.889 107.801 135.874 107.825 135.857 107.849C135.838 107.88 135.817 107.911 135.796 107.941C135.724 108.048 135.647 108.148 135.565 108.248C135.561 108.251 135.558 108.255 135.556 108.258C135.549 108.267 135.543 108.275 135.535 108.282C135.512 108.31 135.488 108.338 135.463 108.367C135.437 108.395 135.414 108.422 135.387 108.448C135.381 108.456 135.374 108.463 135.366 108.471C135.32 108.522 135.27 108.573 135.219 108.619C135.215 108.623 135.21 108.628 135.207 108.631C135.164 108.672 135.12 108.712 135.074 108.753C135.05 108.775 135.028 108.794 135.004 108.812C134.962 108.849 134.919 108.883 134.875 108.917C134.867 108.923 134.861 108.929 134.854 108.934C134.796 108.98 134.735 109.023 134.674 109.066C134.672 109.069 134.669 109.07 134.667 109.07C134.603 109.115 134.538 109.158 134.473 109.198C134.339 109.281 134.2 109.357 134.057 109.423C133.9 109.499 133.737 109.564 133.57 109.619C133.517 109.637 133.463 109.655 133.41 109.67C133.391 109.677 133.371 109.682 133.354 109.686C133.305 109.699 133.257 109.713 133.208 109.725C133.164 109.736 133.119 109.745 133.073 109.754C133.06 109.757 133.046 109.76 133.035 109.763C132.977 109.775 132.917 109.785 132.858 109.794C132.849 109.794 132.84 109.797 132.831 109.799C132.778 109.806 132.724 109.814 132.669 109.82C132.666 109.82 132.663 109.821 132.659 109.821C132.629 109.824 132.598 109.827 132.567 109.83C132.506 109.836 132.444 109.84 132.382 109.842C132.312 109.846 132.242 109.848 132.171 109.848C130.881 109.848 129.722 109.293 128.918 108.408H128.916C128.866 108.343 128.812 108.282 128.757 108.221H128.756C127.951 107.335 126.792 106.78 125.503 106.78C124.213 106.78 123.029 107.347 122.223 108.248C122.184 108.291 122.145 108.335 122.108 108.38C121.302 109.281 120.131 109.848 118.828 109.848C118.652 109.848 118.478 109.837 118.307 109.817C116.124 109.56 114.431 107.703 114.431 105.45C114.431 104.109 115.032 102.908 115.979 102.102C116.746 101.446 117.742 101.053 118.828 101.053C120.08 101.053 121.207 101.574 122.007 102.412C122.107 102.544 122.214 102.671 122.331 102.791C123.129 103.623 124.256 104.143 125.503 104.143C126.749 104.143 127.858 103.632 128.656 102.809C128.782 102.678 128.903 102.54 129.011 102.394C129.808 101.566 130.93 101.053 132.171 101.053C134.6 101.053 136.57 103.021 136.57 105.45Z" fill="white"/>
<path d="M127.448 83.4092C127.5 83.4612 127.551 83.5146 127.598 83.568C127.643 83.617 127.686 83.666 127.726 83.715C127.747 83.7402 127.767 83.7639 127.785 83.7892C127.815 83.8248 127.842 83.8604 127.868 83.8975C127.888 83.9213 127.905 83.945 127.92 83.9687C127.936 83.9925 127.954 84.0148 127.969 84.0385C127.996 84.0756 128.021 84.1157 128.046 84.1557C128.057 84.1706 128.066 84.1869 128.075 84.2032C128.101 84.2418 128.125 84.2834 128.147 84.3249C128.278 84.549 128.385 84.7835 128.472 85.024C128.489 85.067 128.503 85.1115 128.517 85.156C128.545 85.2392 128.569 85.3238 128.591 85.4083C128.603 85.4469 128.612 85.4855 128.621 85.5256C128.627 85.5523 128.634 85.5805 128.638 85.6087C128.647 85.6443 128.655 85.6814 128.661 85.717C128.684 85.8447 128.702 85.9694 128.714 86.0985C128.714 86.1044 128.714 86.1089 128.714 86.1118C128.714 86.1237 128.716 86.1326 128.716 86.143C128.719 86.1801 128.722 86.2157 128.725 86.2543C128.726 86.2914 128.729 86.327 128.729 86.3656C128.729 86.3745 128.729 86.3849 128.729 86.3968C128.733 86.4665 128.733 86.5378 128.729 86.606C128.729 86.612 128.729 86.6179 128.729 86.6224C128.729 86.6817 128.725 86.7426 128.72 86.8034C128.72 86.8361 128.717 86.8658 128.713 86.8954C128.71 86.9504 128.704 87.0053 128.696 87.0617C128.696 87.0706 128.696 87.0795 128.693 87.0884C128.684 87.1626 128.673 87.2353 128.659 87.308C128.659 87.3125 128.659 87.3155 128.658 87.3169C128.644 87.3941 128.628 87.4698 128.61 87.544C128.575 87.6969 128.53 87.8497 128.477 87.9967C128.419 88.1614 128.349 88.3232 128.27 88.479C128.245 88.5295 128.22 88.5799 128.193 88.6274C128.184 88.6467 128.174 88.663 128.165 88.6794C128.14 88.7239 128.116 88.7669 128.089 88.81C128.066 88.85 128.04 88.8871 128.015 88.9257C128.008 88.9376 128 88.9495 127.994 88.9599C127.962 89.0088 127.928 89.0578 127.892 89.1068C127.886 89.1142 127.882 89.1216 127.876 89.1291C127.843 89.1721 127.81 89.2151 127.776 89.2582C127.775 89.2597 127.773 89.2641 127.77 89.2671C127.751 89.2908 127.732 89.3146 127.711 89.3383C127.672 89.3858 127.631 89.4333 127.588 89.4778C127.542 89.5298 127.493 89.5802 127.442 89.6307C126.531 90.542 125.318 90.9694 124.124 90.913H124.122C124.042 90.9041 123.96 90.8981 123.879 90.8937H123.877C122.683 90.8373 121.472 91.2647 120.559 92.176C119.637 93.0976 119.21 94.3265 119.278 95.5331C119.281 95.591 119.285 95.6488 119.291 95.7067C119.358 96.9133 118.931 98.1422 118.011 99.0638C117.886 99.1885 117.755 99.3042 117.62 99.4096C115.896 100.772 113.385 100.656 111.792 99.0638C110.844 98.1155 110.419 96.8406 110.519 95.6013C110.597 94.5951 111.023 93.6126 111.792 92.8438C112.677 91.9593 113.843 91.5304 115.001 91.5571C115.164 91.5808 115.329 91.5942 115.497 91.5957C116.65 91.6194 117.813 91.1905 118.695 90.3089C119.569 89.4348 119.999 88.2831 119.982 87.1359C119.979 86.9548 119.965 86.7723 119.94 86.5927C119.918 85.444 120.348 84.2878 121.225 83.4092C122.944 81.6906 125.727 81.6906 127.445 83.4092H127.448Z" fill="white"/>
<path d="M105.428 74.2891C105.501 74.2891 105.575 74.2891 105.646 74.295C105.712 74.298 105.777 74.3024 105.841 74.3084C105.874 74.3113 105.905 74.3143 105.936 74.3187C105.982 74.3232 106.026 74.3291 106.071 74.3366C106.101 74.3395 106.13 74.344 106.158 74.3499C106.187 74.3544 106.215 74.3588 106.242 74.3648C106.288 74.3722 106.334 74.3826 106.38 74.393C106.397 74.3959 106.415 74.4004 106.433 74.4063C106.479 74.4152 106.525 74.4271 106.571 74.4404C106.822 74.5072 107.064 74.5963 107.295 74.7046C107.337 74.7239 107.378 74.7447 107.42 74.767C107.499 74.8055 107.576 74.8486 107.651 74.8931C107.687 74.9124 107.721 74.9332 107.755 74.9554C107.779 74.9703 107.803 74.9851 107.827 75.0014C107.858 75.0207 107.889 75.0415 107.919 75.0623C108.025 75.135 108.126 75.2122 108.226 75.2938C108.229 75.2983 108.233 75.3012 108.236 75.3027C108.245 75.3101 108.253 75.3161 108.26 75.3235C108.288 75.3472 108.316 75.371 108.345 75.3962C108.373 75.4215 108.399 75.4452 108.426 75.4719C108.434 75.4779 108.441 75.4853 108.448 75.4927C108.5 75.5387 108.551 75.5892 108.597 75.6396C108.601 75.6441 108.606 75.6485 108.609 75.6515C108.65 75.6945 108.69 75.7391 108.73 75.7851C108.753 75.8088 108.772 75.8311 108.79 75.8548C108.827 75.8964 108.861 75.9394 108.895 75.9839C108.901 75.9914 108.907 75.9973 108.912 76.0047C108.958 76.0626 109.001 76.1234 109.044 76.1843C109.047 76.1873 109.048 76.1902 109.048 76.1917C109.093 76.2555 109.136 76.3208 109.176 76.3861C109.259 76.5197 109.334 76.6592 109.401 76.8017C109.477 76.959 109.542 77.1223 109.597 77.2885C109.615 77.3419 109.633 77.3953 109.648 77.4488C109.655 77.4681 109.66 77.4874 109.664 77.5052C109.677 77.5541 109.691 77.6016 109.703 77.6506C109.714 77.6951 109.723 77.7397 109.732 77.7857C109.735 77.799 109.738 77.8124 109.741 77.8243C109.753 77.8821 109.763 77.9415 109.772 78.0009C109.772 78.0098 109.775 78.0187 109.777 78.0276C109.784 78.081 109.792 78.1344 109.798 78.1894C109.798 78.1923 109.799 78.1953 109.799 78.1997C109.802 78.2294 109.805 78.2606 109.808 78.2918C109.814 78.3526 109.818 78.4149 109.82 78.4773C109.824 78.547 109.826 78.6168 109.826 78.688C109.826 79.9777 109.271 81.1368 108.386 81.9412H108.385C108.321 81.9932 108.26 82.0466 108.199 82.1015H108.198C107.313 82.9074 106.758 84.0665 106.758 85.3562C106.758 86.6593 107.325 87.8303 108.226 88.6361C108.269 88.6747 108.313 88.7133 108.358 88.7504C109.259 89.5563 109.826 90.7273 109.826 92.0303C109.826 92.207 109.815 92.3806 109.795 92.5513C109.538 94.7344 107.681 96.4278 105.428 96.4278C104.087 96.4278 102.886 95.8267 102.08 94.8799C101.424 94.1126 101.031 93.1167 101.031 92.0303C101.031 90.7792 101.552 89.6513 102.39 88.8513C102.522 88.7519 102.648 88.645 102.769 88.5278C103.601 87.7293 104.121 86.6029 104.121 85.3562C104.121 84.1199 103.61 83.0009 102.787 82.2024C102.656 82.0763 102.518 81.9561 102.372 81.8477C101.544 81.0508 101.031 79.9288 101.031 78.688C101.031 76.2585 102.999 74.2891 105.428 74.2891Z" fill="white"/>
<path d="M83.3886 83.4091C83.4405 83.3571 83.494 83.3067 83.5474 83.2592C83.5964 83.2147 83.6453 83.1716 83.6943 83.1316C83.7195 83.1108 83.7433 83.09 83.7685 83.0722C83.8041 83.0425 83.8398 83.0158 83.8769 82.9891C83.9006 82.9698 83.9244 82.952 83.9481 82.9371C83.9718 82.9208 83.9941 82.903 84.0179 82.8882C84.055 82.8614 84.095 82.8362 84.1351 82.811C84.1499 82.8006 84.1663 82.7917 84.1826 82.7828C84.2212 82.7561 84.2627 82.7323 84.3043 82.7101C84.5284 82.5795 84.7629 82.4726 85.0033 82.385C85.0464 82.3687 85.0909 82.3539 85.1354 82.3405C85.2185 82.3123 85.3031 82.2886 85.3877 82.2663C85.4263 82.2544 85.4649 82.2455 85.505 82.2366C85.5317 82.2307 85.5599 82.2233 85.5881 82.2188C85.6237 82.2099 85.6608 82.2025 85.6964 82.1966C85.824 82.1728 85.9487 82.155 86.0778 82.1431C86.0838 82.1431 86.0882 82.1431 86.0912 82.1431C86.1031 82.1431 86.112 82.1416 86.1223 82.1416C86.1595 82.1387 86.1951 82.1357 86.2337 82.1327C86.2708 82.1313 86.3064 82.1283 86.345 82.1283C86.3539 82.1283 86.3643 82.1283 86.3761 82.1283C86.4459 82.1238 86.5171 82.1238 86.5854 82.1283C86.5913 82.1283 86.5973 82.1283 86.6017 82.1283C86.6611 82.1283 86.7219 82.1327 86.7828 82.1372C86.8154 82.1372 86.8451 82.1402 86.8748 82.1446C86.9297 82.1476 86.9846 82.1535 87.041 82.1609C87.0499 82.1609 87.0588 82.1609 87.0677 82.1639C87.1419 82.1728 87.2147 82.1847 87.2874 82.198C87.2918 82.198 87.2948 82.198 87.2963 82.1995C87.3735 82.2129 87.4492 82.2292 87.5234 82.247C87.6762 82.2826 87.8291 82.3272 87.976 82.3806C88.1408 82.4385 88.3025 82.5082 88.4584 82.5869C88.5088 82.6121 88.5593 82.6373 88.6068 82.6641C88.6261 82.673 88.6424 82.6833 88.6587 82.6923C88.7033 82.7175 88.7463 82.7412 88.7893 82.7679C88.8294 82.7917 88.8665 82.8169 88.9051 82.8421C88.917 82.8496 88.9288 82.857 88.9392 82.8629C88.9882 82.8956 89.0372 82.9297 89.0862 82.9653C89.0936 82.9713 89.101 82.9757 89.1084 82.9817C89.1515 83.0143 89.1945 83.047 89.2375 83.0811C89.239 83.0826 89.2435 83.0841 89.2464 83.087C89.2702 83.1063 89.2939 83.1256 89.3177 83.1464C89.3652 83.185 89.4127 83.2265 89.4572 83.2696C89.5091 83.3156 89.5596 83.3646 89.6101 83.415C90.5213 84.3263 90.9487 85.5388 90.8923 86.7335C90.8834 86.8167 90.8775 86.8968 90.8731 86.9784C90.8167 88.1746 91.2441 89.3872 92.1553 90.2984C93.077 91.2201 94.3058 91.6475 95.5124 91.5792C95.5703 91.5763 95.6282 91.5718 95.6861 91.5659C96.8927 91.4991 98.1215 91.9265 99.0432 92.8467C99.1679 92.9713 99.2836 93.1019 99.389 93.237C100.751 94.9615 100.636 97.4727 99.0432 99.0652C98.0948 100.014 96.82 100.438 95.5807 100.339C94.5745 100.26 93.592 99.8339 92.8232 99.0652C91.9387 98.1806 91.5097 97.0141 91.5365 95.8565C91.5602 95.6932 91.5736 95.5285 91.575 95.3608C91.5988 94.2076 91.1699 93.0441 90.2883 92.1625C89.4142 91.2883 88.2625 90.8579 87.1152 90.8757C86.9342 90.8787 86.7516 90.8921 86.572 90.9173C85.4233 90.9396 84.2672 90.5092 83.3886 89.632C81.67 87.9134 81.67 85.1307 83.3886 83.4121V83.4091Z" fill="white"/>
<path d="M74.2881 105.45C74.2881 105.378 74.2881 105.303 74.294 105.232C74.297 105.167 74.3014 105.102 74.3074 105.038C74.3103 105.005 74.3133 104.974 74.3178 104.943C74.3222 104.897 74.3282 104.852 74.3356 104.808C74.3385 104.778 74.343 104.748 74.3489 104.72C74.3534 104.692 74.3578 104.664 74.3638 104.637C74.3712 104.591 74.3816 104.545 74.392 104.499C74.3949 104.481 74.3994 104.463 74.4053 104.446C74.4142 104.4 74.4261 104.354 74.4395 104.308C74.5063 104.057 74.5953 103.815 74.7036 103.583C74.7229 103.542 74.7437 103.5 74.766 103.459C74.8046 103.38 74.8476 103.303 74.8921 103.227C74.9114 103.191 74.9322 103.157 74.9545 103.123C74.9693 103.099 74.9841 103.076 75.0005 103.052C75.0198 103.021 75.0405 102.99 75.0613 102.96C75.134 102.853 75.2112 102.752 75.2928 102.653C75.2973 102.65 75.3003 102.645 75.3017 102.642C75.3092 102.633 75.3151 102.626 75.3225 102.619C75.3463 102.59 75.37 102.562 75.3952 102.534C75.4205 102.506 75.4442 102.479 75.4709 102.452C75.4769 102.445 75.4843 102.438 75.4917 102.43C75.5377 102.378 75.5882 102.328 75.6386 102.282C75.6431 102.277 75.6475 102.273 75.6505 102.27C75.6936 102.228 75.7381 102.188 75.7841 102.148C75.8078 102.126 75.8301 102.107 75.8538 102.089C75.8954 102.052 75.9384 102.018 75.983 101.983C75.9904 101.977 75.9963 101.972 76.0037 101.967C76.0616 101.921 76.1225 101.878 76.1833 101.835C76.1863 101.832 76.1893 101.831 76.1907 101.831C76.2546 101.786 76.3199 101.743 76.3852 101.703C76.5187 101.62 76.6582 101.544 76.8007 101.477C76.958 101.402 77.1213 101.336 77.2875 101.281C77.3409 101.264 77.3944 101.246 77.4478 101.231C77.4671 101.224 77.4864 101.219 77.5042 101.215C77.5532 101.201 77.6007 101.188 77.6496 101.176C77.6942 101.164 77.7387 101.155 77.7847 101.146C77.7981 101.143 77.8114 101.14 77.8233 101.137C77.8812 101.126 77.9405 101.115 77.9999 101.106C78.0088 101.106 78.0177 101.103 78.0266 101.102C78.08 101.094 78.1335 101.087 78.1884 101.081C78.1914 101.081 78.1943 101.08 78.1988 101.08C78.2285 101.077 78.2596 101.074 78.2908 101.071C78.3516 101.065 78.414 101.06 78.4763 101.059C78.5461 101.054 78.6158 101.053 78.687 101.053C79.9768 101.053 81.1359 101.608 81.9403 102.492H81.9417C81.9922 102.558 82.0456 102.619 82.1006 102.679H82.102C82.9064 103.565 84.0655 104.121 85.3552 104.121C86.645 104.121 87.8293 103.554 88.6352 102.653C88.6738 102.61 88.7124 102.565 88.7495 102.521C89.5553 101.62 90.7263 101.053 92.0294 101.053C92.206 101.053 92.3796 101.063 92.5503 101.084C94.7335 101.341 96.4269 103.197 96.4269 105.45C96.4269 106.792 95.8258 107.993 94.8789 108.799C94.1116 109.454 93.1158 109.848 92.0294 109.848C90.7783 109.848 89.6503 109.327 88.8504 108.488C88.7509 108.356 88.6441 108.23 88.5268 108.11C87.7284 107.277 86.6019 106.758 85.3552 106.758C84.119 106.758 82.9999 107.268 82.2015 108.092C82.0753 108.223 81.9551 108.361 81.8468 108.506C81.0498 109.334 79.9278 109.848 78.687 109.848C76.2575 109.848 74.2881 107.88 74.2881 105.45Z" fill="white"/>
<path d="M83.3889 127.449C83.337 127.397 83.2865 127.343 83.239 127.29C83.1945 127.241 83.1514 127.192 83.1114 127.143C83.0906 127.118 83.0698 127.094 83.052 127.069C83.0223 127.033 82.9956 126.998 82.9689 126.961C82.9496 126.937 82.9318 126.913 82.917 126.889C82.9006 126.866 82.8828 126.843 82.868 126.82C82.8413 126.782 82.816 126.742 82.7908 126.702C82.7804 126.687 82.7715 126.671 82.7626 126.655C82.7359 126.616 82.7121 126.575 82.6899 126.533C82.5593 126.309 82.4524 126.075 82.3649 125.834C82.3485 125.791 82.3337 125.747 82.3203 125.702C82.2921 125.619 82.2684 125.534 82.2461 125.45C82.2343 125.411 82.2253 125.373 82.2164 125.332C82.2105 125.306 82.2031 125.278 82.1986 125.249C82.1897 125.214 82.1823 125.177 82.1764 125.141C82.1526 125.013 82.1348 124.889 82.1229 124.76C82.1229 124.754 82.1229 124.749 82.1229 124.746C82.1229 124.734 82.1215 124.725 82.1215 124.715C82.1185 124.678 82.1155 124.642 82.1126 124.604C82.1111 124.567 82.1081 124.531 82.1081 124.492C82.1081 124.484 82.1081 124.473 82.1081 124.461C82.1037 124.392 82.1037 124.32 82.1081 124.252C82.1081 124.246 82.1081 124.24 82.1081 124.236C82.1081 124.176 82.1126 124.115 82.117 124.055C82.117 124.022 82.12 123.992 82.1244 123.963C82.1274 123.908 82.1333 123.853 82.1408 123.796C82.1408 123.787 82.1408 123.779 82.1437 123.77C82.1526 123.695 82.1645 123.623 82.1779 123.55C82.1779 123.546 82.1779 123.543 82.1793 123.541C82.1927 123.464 82.209 123.388 82.2268 123.314C82.2625 123.161 82.307 123.008 82.3604 122.861C82.4183 122.697 82.488 122.535 82.5667 122.379C82.5919 122.329 82.6172 122.278 82.6439 122.231C82.6528 122.211 82.6632 122.195 82.6721 122.179C82.6973 122.134 82.721 122.091 82.7478 122.048C82.7715 122.008 82.7967 121.971 82.822 121.932C82.8294 121.92 82.8368 121.909 82.8427 121.898C82.8754 121.849 82.9095 121.8 82.9452 121.751C82.9511 121.744 82.9555 121.736 82.9615 121.729C82.9941 121.686 83.0268 121.643 83.0609 121.6C83.0624 121.598 83.0639 121.594 83.0669 121.591C83.0861 121.567 83.1054 121.543 83.1262 121.52C83.1648 121.472 83.2064 121.425 83.2494 121.38C83.2954 121.328 83.3444 121.278 83.3948 121.227C84.3061 120.316 85.5186 119.889 86.7134 119.945H86.7148C86.795 119.954 86.8766 119.96 86.9582 119.964H86.9597C88.1545 120.021 89.3655 119.593 90.2782 118.682C91.1999 117.76 91.6273 116.532 91.559 115.325C91.5561 115.267 91.5516 115.209 91.5457 115.151C91.4789 113.945 91.9063 112.716 92.8265 111.794C92.9512 111.67 93.0818 111.554 93.2168 111.448C94.9414 110.086 97.4525 110.202 99.045 111.794C99.9934 112.743 100.418 114.017 100.318 115.257C100.24 116.263 99.8138 117.245 99.045 118.014C98.1605 118.899 96.9939 119.328 95.8363 119.301C95.6731 119.277 95.5083 119.264 95.3406 119.262C94.1874 119.239 93.0239 119.668 92.1423 120.549C91.2607 121.431 90.8378 122.575 90.8556 123.722C90.8585 123.903 90.8719 124.086 90.8971 124.265C90.9194 125.414 90.489 126.57 89.6119 127.449C87.8932 129.167 85.1105 129.167 83.3919 127.449H83.3889Z" fill="white"/>
<path d="M105.428 136.57C105.356 136.57 105.281 136.57 105.21 136.564C105.145 136.561 105.079 136.557 105.016 136.551C104.983 136.548 104.952 136.545 104.921 136.541C104.875 136.536 104.83 136.53 104.786 136.523C104.756 136.52 104.726 136.515 104.698 136.509C104.67 136.505 104.642 136.5 104.615 136.495C104.569 136.487 104.523 136.477 104.477 136.466C104.459 136.463 104.441 136.459 104.424 136.453C104.377 136.444 104.331 136.432 104.285 136.419C104.035 136.352 103.793 136.263 103.561 136.155C103.52 136.135 103.478 136.115 103.437 136.092C103.358 136.054 103.281 136.011 103.205 135.966C103.169 135.947 103.135 135.926 103.101 135.904C103.077 135.889 103.054 135.874 103.03 135.858C102.999 135.839 102.968 135.818 102.938 135.797C102.831 135.724 102.73 135.647 102.631 135.565C102.628 135.561 102.623 135.558 102.62 135.557C102.611 135.549 102.604 135.543 102.597 135.536C102.568 135.512 102.54 135.488 102.512 135.463C102.484 135.438 102.457 135.414 102.43 135.387C102.423 135.381 102.415 135.374 102.408 135.367C102.356 135.321 102.306 135.27 102.26 135.22C102.255 135.215 102.251 135.211 102.248 135.208C102.206 135.165 102.166 135.12 102.126 135.074C102.104 135.05 102.085 135.028 102.067 135.004C102.03 134.963 101.995 134.92 101.961 134.875C101.955 134.868 101.949 134.862 101.945 134.855C101.899 134.797 101.856 134.736 101.813 134.675C101.81 134.672 101.808 134.669 101.808 134.668C101.764 134.604 101.721 134.538 101.681 134.473C101.598 134.34 101.522 134.2 101.455 134.058C101.38 133.9 101.314 133.737 101.259 133.571C101.242 133.517 101.224 133.464 101.209 133.41C101.201 133.391 101.197 133.372 101.193 133.354C101.179 133.305 101.166 133.258 101.154 133.209C101.142 133.164 101.133 133.12 101.124 133.074C101.121 133.06 101.118 133.047 101.115 133.035C101.104 132.977 101.093 132.918 101.084 132.858C101.084 132.849 101.081 132.841 101.08 132.832C101.072 132.778 101.065 132.725 101.059 132.67C101.059 132.667 101.057 132.664 101.057 132.66C101.055 132.63 101.052 132.599 101.049 132.568C101.043 132.507 101.038 132.444 101.037 132.382C101.032 132.312 101.031 132.242 101.031 132.171C101.031 130.882 101.586 129.722 102.47 128.918H102.472C102.536 128.866 102.597 128.813 102.657 128.758H102.659C103.543 127.952 104.098 126.793 104.098 125.503C104.098 124.2 103.532 123.029 102.631 122.223C102.588 122.185 102.543 122.146 102.499 122.109C101.598 121.303 101.031 120.132 101.031 118.829C101.031 118.652 101.041 118.479 101.062 118.308C101.319 116.125 103.175 114.431 105.428 114.431C106.77 114.431 107.971 115.033 108.776 115.979C109.432 116.747 109.826 117.743 109.826 118.829C109.826 120.08 109.305 121.208 108.466 122.008C108.334 122.107 108.208 122.214 108.088 122.331C107.255 123.13 106.736 124.256 106.736 125.503C106.736 126.739 107.246 127.858 108.07 128.657C108.201 128.783 108.339 128.903 108.484 129.012C109.312 129.809 109.826 130.931 109.826 132.171C109.826 134.601 107.858 136.57 105.428 136.57Z" fill="white"/>
<path d="M127.448 127.47C127.396 127.522 127.343 127.572 127.29 127.62C127.241 127.664 127.192 127.707 127.143 127.747C127.117 127.768 127.094 127.789 127.068 127.807C127.033 127.836 126.997 127.863 126.96 127.89C126.936 127.909 126.913 127.927 126.889 127.942C126.865 127.958 126.843 127.976 126.819 127.991C126.782 128.017 126.742 128.043 126.702 128.068C126.687 128.078 126.671 128.087 126.654 128.096C126.616 128.123 126.574 128.147 126.533 128.169C126.309 128.299 126.074 128.406 125.834 128.494C125.791 128.51 125.746 128.525 125.702 128.538C125.618 128.567 125.534 128.59 125.449 128.613C125.411 128.624 125.372 128.633 125.332 128.642C125.305 128.648 125.277 128.656 125.249 128.66C125.213 128.669 125.176 128.676 125.141 128.682C125.013 128.706 124.888 128.724 124.759 128.736C124.753 128.736 124.749 128.736 124.746 128.736C124.734 128.736 124.725 128.737 124.715 128.737C124.677 128.74 124.642 128.743 124.603 128.746C124.566 128.748 124.531 128.751 124.492 128.751C124.483 128.751 124.473 128.751 124.461 128.751C124.391 128.755 124.32 128.755 124.252 128.751C124.246 128.751 124.24 128.751 124.235 128.751C124.176 128.751 124.115 128.746 124.054 128.742C124.021 128.742 123.992 128.739 123.962 128.734C123.907 128.731 123.852 128.725 123.796 128.718C123.787 128.718 123.778 128.718 123.769 128.715C123.695 128.706 123.622 128.694 123.55 128.681C123.545 128.681 123.542 128.681 123.541 128.679C123.463 128.666 123.388 128.65 123.314 128.632C123.161 128.596 123.008 128.552 122.861 128.498C122.696 128.44 122.534 128.371 122.379 128.292C122.328 128.267 122.278 128.242 122.23 128.215C122.211 128.206 122.195 128.196 122.178 128.187C122.134 128.161 122.091 128.138 122.048 128.111C122.008 128.087 121.97 128.062 121.932 128.037C121.92 128.029 121.908 128.022 121.898 128.016C121.849 127.983 121.8 127.949 121.751 127.914C121.743 127.908 121.736 127.903 121.728 127.897C121.685 127.865 121.642 127.832 121.599 127.798C121.598 127.796 121.593 127.795 121.59 127.792C121.567 127.773 121.543 127.753 121.519 127.732C121.472 127.694 121.424 127.652 121.38 127.609C121.328 127.563 121.277 127.514 121.227 127.464C120.316 126.553 119.888 125.34 119.945 124.145C119.953 124.062 119.959 123.982 119.964 123.9C120.02 122.704 119.593 121.492 118.682 120.58C117.76 119.659 116.531 119.231 115.324 119.3C115.267 119.303 115.209 119.307 115.151 119.313C113.944 119.38 112.715 118.952 111.794 118.032C111.669 117.908 111.553 117.777 111.448 117.642C110.085 115.917 110.201 113.406 111.794 111.814C112.742 110.865 114.017 110.441 115.256 110.54C116.262 110.619 117.245 111.045 118.014 111.814C118.898 112.698 119.327 113.865 119.3 115.022C119.277 115.186 119.263 115.35 119.262 115.518C119.238 116.671 119.667 117.835 120.549 118.716C121.423 119.591 122.574 120.021 123.722 120.003C123.903 120 124.085 119.987 124.265 119.962C125.414 119.939 126.57 120.37 127.448 121.247C129.167 122.965 129.167 125.748 127.448 127.467V127.47Z" fill="white"/>
<path d="M136.57 105.45C136.57 105.523 136.57 105.597 136.564 105.668C136.561 105.734 136.556 105.799 136.55 105.863C136.547 105.896 136.544 105.927 136.54 105.958C136.536 106.004 136.53 106.048 136.522 106.093C136.519 106.123 136.515 106.152 136.509 106.181C136.504 106.209 136.5 106.237 136.494 106.264C136.487 106.31 136.476 106.356 136.466 106.402C136.463 106.419 136.458 106.437 136.452 106.455C136.444 106.501 136.432 106.547 136.418 106.593C136.352 106.844 136.263 107.086 136.154 107.317C136.135 107.359 136.114 107.4 136.092 107.442C136.053 107.521 136.01 107.598 135.966 107.674C135.946 107.709 135.926 107.743 135.903 107.777C135.889 107.801 135.874 107.825 135.857 107.849C135.838 107.88 135.817 107.911 135.796 107.941C135.724 108.048 135.647 108.148 135.565 108.248C135.561 108.251 135.558 108.255 135.556 108.258C135.549 108.267 135.543 108.275 135.535 108.282C135.512 108.31 135.488 108.338 135.463 108.367C135.437 108.395 135.414 108.422 135.387 108.448C135.381 108.456 135.374 108.463 135.366 108.471C135.32 108.522 135.27 108.573 135.219 108.619C135.215 108.623 135.21 108.628 135.207 108.631C135.164 108.672 135.12 108.712 135.074 108.753C135.05 108.775 135.028 108.794 135.004 108.812C134.962 108.849 134.919 108.883 134.875 108.917C134.867 108.923 134.861 108.929 134.854 108.934C134.796 108.98 134.735 109.023 134.674 109.066C134.672 109.069 134.669 109.07 134.667 109.07C134.603 109.115 134.538 109.158 134.473 109.198C134.339 109.281 134.2 109.357 134.057 109.423C133.9 109.499 133.737 109.564 133.57 109.619C133.517 109.637 133.463 109.655 133.41 109.67C133.391 109.677 133.371 109.682 133.354 109.686C133.305 109.699 133.257 109.713 133.208 109.725C133.164 109.736 133.119 109.745 133.073 109.754C133.06 109.757 133.046 109.76 133.035 109.763C132.977 109.775 132.917 109.785 132.858 109.794C132.849 109.794 132.84 109.797 132.831 109.799C132.778 109.806 132.724 109.814 132.669 109.82C132.666 109.82 132.663 109.821 132.659 109.821C132.629 109.824 132.598 109.827 132.567 109.83C132.506 109.836 132.444 109.84 132.382 109.842C132.312 109.846 132.242 109.848 132.171 109.848C130.881 109.848 129.722 109.293 128.918 108.408H128.916C128.866 108.343 128.812 108.282 128.757 108.221H128.756C127.951 107.335 126.792 106.78 125.503 106.78C124.213 106.78 123.029 107.347 122.223 108.248C122.184 108.291 122.145 108.335 122.108 108.38C121.302 109.281 120.131 109.848 118.828 109.848C118.652 109.848 118.478 109.837 118.307 109.817C116.124 109.56 114.431 107.703 114.431 105.45C114.431 104.109 115.032 102.908 115.979 102.102C116.746 101.446 117.742 101.053 118.828 101.053C120.08 101.053 121.207 101.574 122.007 102.412C122.107 102.544 122.214 102.671 122.331 102.791C123.129 103.623 124.256 104.143 125.503 104.143C126.749 104.143 127.858 103.632 128.656 102.809C128.782 102.678 128.903 102.54 129.011 102.394C129.808 101.566 130.93 101.053 132.171 101.053C134.6 101.053 136.57 103.021 136.57 105.45Z" fill="white"/>
<path d="M127.448 83.4092C127.5 83.4612 127.551 83.5146 127.598 83.568C127.643 83.617 127.686 83.666 127.726 83.715C127.747 83.7402 127.767 83.7639 127.785 83.7892C127.815 83.8248 127.842 83.8604 127.868 83.8975C127.888 83.9213 127.905 83.945 127.92 83.9687C127.936 83.9925 127.954 84.0148 127.969 84.0385C127.996 84.0756 128.021 84.1157 128.046 84.1557C128.057 84.1706 128.066 84.1869 128.075 84.2032C128.101 84.2418 128.125 84.2834 128.147 84.3249C128.278 84.549 128.385 84.7835 128.472 85.024C128.489 85.067 128.503 85.1115 128.517 85.156C128.545 85.2392 128.569 85.3238 128.591 85.4083C128.603 85.4469 128.612 85.4855 128.621 85.5256C128.627 85.5523 128.634 85.5805 128.638 85.6087C128.647 85.6443 128.655 85.6814 128.661 85.717C128.684 85.8447 128.702 85.9694 128.714 86.0985C128.714 86.1044 128.714 86.1089 128.714 86.1118C128.714 86.1237 128.716 86.1326 128.716 86.143C128.719 86.1801 128.722 86.2157 128.725 86.2543C128.726 86.2914 128.729 86.327 128.729 86.3656C128.729 86.3745 128.729 86.3849 128.729 86.3968C128.733 86.4665 128.733 86.5378 128.729 86.606C128.729 86.612 128.729 86.6179 128.729 86.6224C128.729 86.6817 128.725 86.7426 128.72 86.8034C128.72 86.8361 128.717 86.8658 128.713 86.8954C128.71 86.9504 128.704 87.0053 128.696 87.0617C128.696 87.0706 128.696 87.0795 128.693 87.0884C128.684 87.1626 128.673 87.2353 128.659 87.308C128.659 87.3125 128.659 87.3155 128.658 87.3169C128.644 87.3941 128.628 87.4698 128.61 87.544C128.575 87.6969 128.53 87.8497 128.477 87.9967C128.419 88.1614 128.349 88.3232 128.27 88.479C128.245 88.5295 128.22 88.5799 128.193 88.6274C128.184 88.6467 128.174 88.663 128.165 88.6794C128.14 88.7239 128.116 88.7669 128.089 88.81C128.066 88.85 128.04 88.8871 128.015 88.9257C128.008 88.9376 128 88.9495 127.994 88.9599C127.962 89.0088 127.928 89.0578 127.892 89.1068C127.886 89.1142 127.882 89.1216 127.876 89.1291C127.843 89.1721 127.81 89.2151 127.776 89.2582C127.775 89.2597 127.773 89.2641 127.77 89.2671C127.751 89.2908 127.732 89.3146 127.711 89.3383C127.672 89.3858 127.631 89.4333 127.588 89.4778C127.542 89.5298 127.493 89.5802 127.442 89.6307C126.531 90.542 125.318 90.9694 124.124 90.913H124.122C124.042 90.9041 123.96 90.8981 123.879 90.8937H123.877C122.683 90.8373 121.472 91.2647 120.559 92.176C119.637 93.0976 119.21 94.3265 119.278 95.5331C119.281 95.591 119.285 95.6488 119.291 95.7067C119.358 96.9133 118.931 98.1422 118.011 99.0638C117.886 99.1885 117.755 99.3042 117.62 99.4096C115.896 100.772 113.385 100.656 111.792 99.0638C110.844 98.1155 110.419 96.8406 110.519 95.6013C110.597 94.5951 111.023 93.6126 111.792 92.8438C112.677 91.9593 113.843 91.5304 115.001 91.5571C115.164 91.5808 115.329 91.5942 115.497 91.5957C116.65 91.6194 117.813 91.1905 118.695 90.3089C119.569 89.4348 119.999 88.2831 119.982 87.1359C119.979 86.9548 119.965 86.7723 119.94 86.5927C119.918 85.444 120.348 84.2878 121.225 83.4092C122.944 81.6906 125.727 81.6906 127.445 83.4092H127.448Z" fill="white"/>
<path d="M105.428 74.2891C105.501 74.2891 105.575 74.2891 105.646 74.295C105.712 74.298 105.777 74.3024 105.841 74.3084C105.874 74.3113 105.905 74.3143 105.936 74.3187C105.982 74.3232 106.026 74.3291 106.071 74.3366C106.101 74.3395 106.13 74.344 106.158 74.3499C106.187 74.3544 106.215 74.3588 106.242 74.3648C106.288 74.3722 106.334 74.3826 106.38 74.393C106.397 74.3959 106.415 74.4004 106.433 74.4063C106.479 74.4152 106.525 74.4271 106.571 74.4404C106.822 74.5072 107.064 74.5963 107.295 74.7046C107.337 74.7239 107.378 74.7447 107.42 74.767C107.499 74.8055 107.576 74.8486 107.651 74.8931C107.687 74.9124 107.721 74.9332 107.755 74.9554C107.779 74.9703 107.803 74.9851 107.827 75.0014C107.858 75.0207 107.889 75.0415 107.919 75.0623C108.025 75.135 108.126 75.2122 108.226 75.2938C108.229 75.2983 108.233 75.3012 108.236 75.3027C108.245 75.3101 108.253 75.3161 108.26 75.3235C108.288 75.3472 108.316 75.371 108.345 75.3962C108.373 75.4215 108.399 75.4452 108.426 75.4719C108.434 75.4779 108.441 75.4853 108.448 75.4927C108.5 75.5387 108.551 75.5892 108.597 75.6396C108.601 75.6441 108.606 75.6485 108.609 75.6515C108.65 75.6945 108.69 75.7391 108.73 75.7851C108.753 75.8088 108.772 75.8311 108.79 75.8548C108.827 75.8964 108.861 75.9394 108.895 75.9839C108.901 75.9914 108.907 75.9973 108.912 76.0047C108.958 76.0626 109.001 76.1234 109.044 76.1843C109.047 76.1873 109.048 76.1902 109.048 76.1917C109.093 76.2555 109.136 76.3208 109.176 76.3861C109.259 76.5197 109.334 76.6592 109.401 76.8017C109.477 76.959 109.542 77.1223 109.597 77.2885C109.615 77.3419 109.633 77.3953 109.648 77.4488C109.655 77.4681 109.66 77.4874 109.664 77.5052C109.677 77.5541 109.691 77.6016 109.703 77.6506C109.714 77.6951 109.723 77.7397 109.732 77.7857C109.735 77.799 109.738 77.8124 109.741 77.8243C109.753 77.8821 109.763 77.9415 109.772 78.0009C109.772 78.0098 109.775 78.0187 109.777 78.0276C109.784 78.081 109.792 78.1344 109.798 78.1894C109.798 78.1923 109.799 78.1953 109.799 78.1997C109.802 78.2294 109.805 78.2606 109.808 78.2918C109.814 78.3526 109.818 78.4149 109.82 78.4773C109.824 78.547 109.826 78.6168 109.826 78.688C109.826 79.9777 109.271 81.1368 108.386 81.9412H108.385C108.321 81.9932 108.26 82.0466 108.199 82.1015H108.198C107.313 82.9074 106.758 84.0665 106.758 85.3562C106.758 86.6593 107.325 87.8303 108.226 88.6361C108.269 88.6747 108.313 88.7133 108.358 88.7504C109.259 89.5563 109.826 90.7273 109.826 92.0303C109.826 92.207 109.815 92.3806 109.795 92.5513C109.538 94.7344 107.681 96.4278 105.428 96.4278C104.087 96.4278 102.886 95.8267 102.08 94.8799C101.424 94.1126 101.031 93.1167 101.031 92.0303C101.031 90.7792 101.552 89.6513 102.39 88.8513C102.522 88.7519 102.648 88.645 102.769 88.5278C103.601 87.7293 104.121 86.6029 104.121 85.3562C104.121 84.1199 103.61 83.0009 102.787 82.2024C102.656 82.0763 102.518 81.9561 102.372 81.8477C101.544 81.0508 101.031 79.9288 101.031 78.688C101.031 76.2585 102.999 74.2891 105.428 74.2891Z" fill="white"/>
<path d="M83.3886 83.4091C83.4405 83.3571 83.494 83.3067 83.5474 83.2592C83.5964 83.2147 83.6453 83.1716 83.6943 83.1316C83.7195 83.1108 83.7433 83.09 83.7685 83.0722C83.8041 83.0425 83.8398 83.0158 83.8769 82.9891C83.9006 82.9698 83.9244 82.952 83.9481 82.9371C83.9718 82.9208 83.9941 82.903 84.0179 82.8882C84.055 82.8614 84.095 82.8362 84.1351 82.811C84.1499 82.8006 84.1663 82.7917 84.1826 82.7828C84.2212 82.7561 84.2627 82.7323 84.3043 82.7101C84.5284 82.5795 84.7629 82.4726 85.0033 82.385C85.0464 82.3687 85.0909 82.3539 85.1354 82.3405C85.2185 82.3123 85.3031 82.2886 85.3877 82.2663C85.4263 82.2544 85.4649 82.2455 85.505 82.2366C85.5317 82.2307 85.5599 82.2233 85.5881 82.2188C85.6237 82.2099 85.6608 82.2025 85.6964 82.1966C85.824 82.1728 85.9487 82.155 86.0778 82.1431C86.0838 82.1431 86.0882 82.1431 86.0912 82.1431C86.1031 82.1431 86.112 82.1416 86.1223 82.1416C86.1595 82.1387 86.1951 82.1357 86.2337 82.1327C86.2708 82.1313 86.3064 82.1283 86.345 82.1283C86.3539 82.1283 86.3643 82.1283 86.3761 82.1283C86.4459 82.1238 86.5171 82.1238 86.5854 82.1283C86.5913 82.1283 86.5973 82.1283 86.6017 82.1283C86.6611 82.1283 86.7219 82.1327 86.7828 82.1372C86.8154 82.1372 86.8451 82.1402 86.8748 82.1446C86.9297 82.1476 86.9846 82.1535 87.041 82.1609C87.0499 82.1609 87.0588 82.1609 87.0677 82.1639C87.1419 82.1728 87.2147 82.1847 87.2874 82.198C87.2918 82.198 87.2948 82.198 87.2963 82.1995C87.3735 82.2129 87.4492 82.2292 87.5234 82.247C87.6762 82.2826 87.8291 82.3272 87.976 82.3806C88.1408 82.4385 88.3025 82.5082 88.4584 82.5869C88.5088 82.6121 88.5593 82.6373 88.6068 82.6641C88.6261 82.673 88.6424 82.6833 88.6587 82.6923C88.7033 82.7175 88.7463 82.7412 88.7893 82.7679C88.8294 82.7917 88.8665 82.8169 88.9051 82.8421C88.917 82.8496 88.9288 82.857 88.9392 82.8629C88.9882 82.8956 89.0372 82.9297 89.0862 82.9653C89.0936 82.9713 89.101 82.9757 89.1084 82.9817C89.1515 83.0143 89.1945 83.047 89.2375 83.0811C89.239 83.0826 89.2435 83.0841 89.2464 83.087C89.2702 83.1063 89.2939 83.1256 89.3177 83.1464C89.3652 83.185 89.4127 83.2265 89.4572 83.2696C89.5091 83.3156 89.5596 83.3646 89.6101 83.415C90.5213 84.3263 90.9487 85.5388 90.8923 86.7335C90.8834 86.8167 90.8775 86.8968 90.8731 86.9784C90.8167 88.1746 91.2441 89.3872 92.1553 90.2984C93.077 91.2201 94.3058 91.6475 95.5124 91.5792C95.5703 91.5763 95.6282 91.5718 95.6861 91.5659C96.8927 91.4991 98.1215 91.9265 99.0432 92.8467C99.1679 92.9713 99.2836 93.1019 99.389 93.237C100.751 94.9615 100.636 97.4727 99.0432 99.0652C98.0948 100.014 96.82 100.438 95.5807 100.339C94.5745 100.26 93.592 99.8339 92.8232 99.0652C91.9387 98.1806 91.5097 97.0141 91.5365 95.8565C91.5602 95.6932 91.5736 95.5285 91.575 95.3608C91.5988 94.2076 91.1699 93.0441 90.2883 92.1625C89.4142 91.2883 88.2625 90.8579 87.1152 90.8757C86.9342 90.8787 86.7516 90.8921 86.572 90.9173C85.4233 90.9396 84.2672 90.5092 83.3886 89.632C81.67 87.9134 81.67 85.1307 83.3886 83.4121V83.4091Z" fill="white"/>
<path d="M74.2881 105.45C74.2881 105.378 74.2881 105.303 74.294 105.232C74.297 105.167 74.3014 105.102 74.3074 105.038C74.3103 105.005 74.3133 104.974 74.3178 104.943C74.3222 104.897 74.3282 104.852 74.3356 104.808C74.3385 104.778 74.343 104.748 74.3489 104.72C74.3534 104.692 74.3578 104.664 74.3638 104.637C74.3712 104.591 74.3816 104.545 74.392 104.499C74.3949 104.481 74.3994 104.463 74.4053 104.446C74.4142 104.4 74.4261 104.354 74.4395 104.308C74.5063 104.057 74.5953 103.815 74.7036 103.583C74.7229 103.542 74.7437 103.5 74.766 103.459C74.8046 103.38 74.8476 103.303 74.8921 103.227C74.9114 103.191 74.9322 103.157 74.9545 103.123C74.9693 103.099 74.9841 103.076 75.0005 103.052C75.0198 103.021 75.0405 102.99 75.0613 102.96C75.134 102.853 75.2112 102.752 75.2928 102.653C75.2973 102.65 75.3003 102.645 75.3017 102.642C75.3092 102.633 75.3151 102.626 75.3225 102.619C75.3463 102.59 75.37 102.562 75.3952 102.534C75.4205 102.506 75.4442 102.479 75.4709 102.452C75.4769 102.445 75.4843 102.438 75.4917 102.43C75.5377 102.378 75.5882 102.328 75.6386 102.282C75.6431 102.277 75.6475 102.273 75.6505 102.27C75.6936 102.228 75.7381 102.188 75.7841 102.148C75.8078 102.126 75.8301 102.107 75.8538 102.089C75.8954 102.052 75.9384 102.018 75.983 101.983C75.9904 101.977 75.9963 101.972 76.0037 101.967C76.0616 101.921 76.1225 101.878 76.1833 101.835C76.1863 101.832 76.1893 101.831 76.1907 101.831C76.2546 101.786 76.3199 101.743 76.3852 101.703C76.5187 101.62 76.6582 101.544 76.8007 101.477C76.958 101.402 77.1213 101.336 77.2875 101.281C77.3409 101.264 77.3944 101.246 77.4478 101.231C77.4671 101.224 77.4864 101.219 77.5042 101.215C77.5532 101.201 77.6007 101.188 77.6496 101.176C77.6942 101.164 77.7387 101.155 77.7847 101.146C77.7981 101.143 77.8114 101.14 77.8233 101.137C77.8812 101.126 77.9405 101.115 77.9999 101.106C78.0088 101.106 78.0177 101.103 78.0266 101.102C78.08 101.094 78.1335 101.087 78.1884 101.081C78.1914 101.081 78.1943 101.08 78.1988 101.08C78.2285 101.077 78.2596 101.074 78.2908 101.071C78.3516 101.065 78.414 101.06 78.4763 101.059C78.5461 101.054 78.6158 101.053 78.687 101.053C79.9768 101.053 81.1359 101.608 81.9403 102.492H81.9417C81.9922 102.558 82.0456 102.619 82.1006 102.679H82.102C82.9064 103.565 84.0655 104.121 85.3552 104.121C86.645 104.121 87.8293 103.554 88.6352 102.653C88.6738 102.61 88.7124 102.565 88.7495 102.521C89.5553 101.62 90.7263 101.053 92.0294 101.053C92.206 101.053 92.3796 101.063 92.5503 101.084C94.7335 101.341 96.4269 103.197 96.4269 105.45C96.4269 106.792 95.8258 107.993 94.8789 108.799C94.1116 109.454 93.1158 109.848 92.0294 109.848C90.7783 109.848 89.6503 109.327 88.8504 108.488C88.7509 108.356 88.6441 108.23 88.5268 108.11C87.7284 107.277 86.6019 106.758 85.3552 106.758C84.119 106.758 82.9999 107.268 82.2015 108.092C82.0753 108.223 81.9551 108.361 81.8468 108.506C81.0498 109.334 79.9278 109.848 78.687 109.848C76.2575 109.848 74.2881 107.88 74.2881 105.45Z" fill="white"/>
<path d="M83.3889 127.449C83.337 127.397 83.2865 127.343 83.239 127.29C83.1945 127.241 83.1514 127.192 83.1114 127.143C83.0906 127.118 83.0698 127.094 83.052 127.069C83.0223 127.033 82.9956 126.998 82.9689 126.961C82.9496 126.937 82.9318 126.913 82.917 126.889C82.9006 126.866 82.8828 126.843 82.868 126.82C82.8413 126.782 82.816 126.742 82.7908 126.702C82.7804 126.687 82.7715 126.671 82.7626 126.655C82.7359 126.616 82.7121 126.575 82.6899 126.533C82.5593 126.309 82.4524 126.075 82.3649 125.834C82.3485 125.791 82.3337 125.747 82.3203 125.702C82.2921 125.619 82.2684 125.534 82.2461 125.45C82.2343 125.411 82.2253 125.373 82.2164 125.332C82.2105 125.306 82.2031 125.278 82.1986 125.249C82.1897 125.214 82.1823 125.177 82.1764 125.141C82.1526 125.013 82.1348 124.889 82.1229 124.76C82.1229 124.754 82.1229 124.749 82.1229 124.746C82.1229 124.734 82.1215 124.725 82.1215 124.715C82.1185 124.678 82.1155 124.642 82.1126 124.604C82.1111 124.567 82.1081 124.531 82.1081 124.492C82.1081 124.484 82.1081 124.473 82.1081 124.461C82.1037 124.392 82.1037 124.32 82.1081 124.252C82.1081 124.246 82.1081 124.24 82.1081 124.236C82.1081 124.176 82.1126 124.115 82.117 124.055C82.117 124.022 82.12 123.992 82.1244 123.963C82.1274 123.908 82.1333 123.853 82.1408 123.796C82.1408 123.787 82.1408 123.779 82.1437 123.77C82.1526 123.695 82.1645 123.623 82.1779 123.55C82.1779 123.546 82.1779 123.543 82.1793 123.541C82.1927 123.464 82.209 123.388 82.2268 123.314C82.2625 123.161 82.307 123.008 82.3604 122.861C82.4183 122.697 82.488 122.535 82.5667 122.379C82.5919 122.329 82.6172 122.278 82.6439 122.231C82.6528 122.211 82.6632 122.195 82.6721 122.179C82.6973 122.134 82.721 122.091 82.7478 122.048C82.7715 122.008 82.7967 121.971 82.822 121.932C82.8294 121.92 82.8368 121.909 82.8427 121.898C82.8754 121.849 82.9095 121.8 82.9452 121.751C82.9511 121.744 82.9555 121.736 82.9615 121.729C82.9941 121.686 83.0268 121.643 83.0609 121.6C83.0624 121.598 83.0639 121.594 83.0669 121.591C83.0861 121.567 83.1054 121.543 83.1262 121.52C83.1648 121.472 83.2064 121.425 83.2494 121.38C83.2954 121.328 83.3444 121.278 83.3948 121.227C84.3061 120.316 85.5186 119.889 86.7134 119.945H86.7148C86.795 119.954 86.8766 119.96 86.9582 119.964H86.9597C88.1545 120.021 89.3655 119.593 90.2782 118.682C91.1999 117.76 91.6273 116.532 91.559 115.325C91.5561 115.267 91.5516 115.209 91.5457 115.151C91.4789 113.945 91.9063 112.716 92.8265 111.794C92.9512 111.67 93.0818 111.554 93.2168 111.448C94.9414 110.086 97.4525 110.202 99.045 111.794C99.9934 112.743 100.418 114.017 100.318 115.257C100.24 116.263 99.8138 117.245 99.045 118.014C98.1605 118.899 96.9939 119.328 95.8363 119.301C95.6731 119.277 95.5083 119.264 95.3406 119.262C94.1874 119.239 93.0239 119.668 92.1423 120.549C91.2607 121.431 90.8378 122.575 90.8556 123.722C90.8585 123.903 90.8719 124.086 90.8971 124.265C90.9194 125.414 90.489 126.57 89.6119 127.449C87.8932 129.167 85.1105 129.167 83.3919 127.449H83.3889Z" fill="white"/>
<path d="M105.428 136.57C105.356 136.57 105.281 136.57 105.21 136.564C105.145 136.561 105.079 136.557 105.016 136.551C104.983 136.548 104.952 136.545 104.921 136.541C104.875 136.536 104.83 136.53 104.786 136.523C104.756 136.52 104.726 136.515 104.698 136.509C104.67 136.505 104.642 136.5 104.615 136.495C104.569 136.487 104.523 136.477 104.477 136.466C104.459 136.463 104.441 136.459 104.424 136.453C104.377 136.444 104.331 136.432 104.285 136.419C104.035 136.352 103.793 136.263 103.561 136.155C103.52 136.135 103.478 136.115 103.437 136.092C103.358 136.054 103.281 136.011 103.205 135.966C103.169 135.947 103.135 135.926 103.101 135.904C103.077 135.889 103.054 135.874 103.03 135.858C102.999 135.839 102.968 135.818 102.938 135.797C102.831 135.724 102.73 135.647 102.631 135.565C102.628 135.561 102.623 135.558 102.62 135.557C102.611 135.549 102.604 135.543 102.597 135.536C102.568 135.512 102.54 135.488 102.512 135.463C102.484 135.438 102.457 135.414 102.43 135.387C102.423 135.381 102.415 135.374 102.408 135.367C102.356 135.321 102.306 135.27 102.26 135.22C102.255 135.215 102.251 135.211 102.248 135.208C102.206 135.165 102.166 135.12 102.126 135.074C102.104 135.05 102.085 135.028 102.067 135.004C102.03 134.963 101.995 134.92 101.961 134.875C101.955 134.868 101.949 134.862 101.945 134.855C101.899 134.797 101.856 134.736 101.813 134.675C101.81 134.672 101.808 134.669 101.808 134.668C101.764 134.604 101.721 134.538 101.681 134.473C101.598 134.34 101.522 134.2 101.455 134.058C101.38 133.9 101.314 133.737 101.259 133.571C101.242 133.517 101.224 133.464 101.209 133.41C101.201 133.391 101.197 133.372 101.193 133.354C101.179 133.305 101.166 133.258 101.154 133.209C101.142 133.164 101.133 133.12 101.124 133.074C101.121 133.06 101.118 133.047 101.115 133.035C101.104 132.977 101.093 132.918 101.084 132.858C101.084 132.849 101.081 132.841 101.08 132.832C101.072 132.778 101.065 132.725 101.059 132.67C101.059 132.667 101.057 132.664 101.057 132.66C101.055 132.63 101.052 132.599 101.049 132.568C101.043 132.507 101.038 132.444 101.037 132.382C101.032 132.312 101.031 132.242 101.031 132.171C101.031 130.882 101.586 129.722 102.47 128.918H102.472C102.536 128.866 102.597 128.813 102.657 128.758H102.659C103.543 127.952 104.098 126.793 104.098 125.503C104.098 124.2 103.532 123.029 102.631 122.223C102.588 122.185 102.543 122.146 102.499 122.109C101.598 121.303 101.031 120.132 101.031 118.829C101.031 118.652 101.041 118.479 101.062 118.308C101.319 116.125 103.175 114.431 105.428 114.431C106.77 114.431 107.971 115.033 108.776 115.979C109.432 116.747 109.826 117.743 109.826 118.829C109.826 120.08 109.305 121.208 108.466 122.008C108.334 122.107 108.208 122.214 108.088 122.331C107.255 123.13 106.736 124.256 106.736 125.503C106.736 126.739 107.246 127.858 108.07 128.657C108.201 128.783 108.339 128.903 108.484 129.012C109.312 129.809 109.826 130.931 109.826 132.171C109.826 134.601 107.858 136.57 105.428 136.57Z" fill="white"/>
<path d="M127.448 127.47C127.396 127.522 127.343 127.572 127.29 127.62C127.241 127.664 127.192 127.707 127.143 127.747C127.117 127.768 127.094 127.789 127.068 127.807C127.033 127.836 126.997 127.863 126.96 127.89C126.936 127.909 126.913 127.927 126.889 127.942C126.865 127.958 126.843 127.976 126.819 127.991C126.782 128.017 126.742 128.043 126.702 128.068C126.687 128.078 126.671 128.087 126.654 128.096C126.616 128.123 126.574 128.147 126.533 128.169C126.309 128.299 126.074 128.406 125.834 128.494C125.791 128.51 125.746 128.525 125.702 128.538C125.618 128.567 125.534 128.59 125.449 128.613C125.411 128.624 125.372 128.633 125.332 128.642C125.305 128.648 125.277 128.656 125.249 128.66C125.213 128.669 125.176 128.676 125.141 128.682C125.013 128.706 124.888 128.724 124.759 128.736C124.753 128.736 124.749 128.736 124.746 128.736C124.734 128.736 124.725 128.737 124.715 128.737C124.677 128.74 124.642 128.743 124.603 128.746C124.566 128.748 124.531 128.751 124.492 128.751C124.483 128.751 124.473 128.751 124.461 128.751C124.391 128.755 124.32 128.755 124.252 128.751C124.246 128.751 124.24 128.751 124.235 128.751C124.176 128.751 124.115 128.746 124.054 128.742C124.021 128.742 123.992 128.739 123.962 128.734C123.907 128.731 123.852 128.725 123.796 128.718C123.787 128.718 123.778 128.718 123.769 128.715C123.695 128.706 123.622 128.694 123.55 128.681C123.545 128.681 123.542 128.681 123.541 128.679C123.463 128.666 123.388 128.65 123.314 128.632C123.161 128.596 123.008 128.552 122.861 128.498C122.696 128.44 122.534 128.371 122.379 128.292C122.328 128.267 122.278 128.242 122.23 128.215C122.211 128.206 122.195 128.196 122.178 128.187C122.134 128.161 122.091 128.138 122.048 128.111C122.008 128.087 121.97 128.062 121.932 128.037C121.92 128.029 121.908 128.022 121.898 128.016C121.849 127.983 121.8 127.949 121.751 127.914C121.743 127.908 121.736 127.903 121.728 127.897C121.685 127.865 121.642 127.832 121.599 127.798C121.598 127.796 121.593 127.795 121.59 127.792C121.567 127.773 121.543 127.753 121.519 127.732C121.472 127.694 121.424 127.652 121.38 127.609C121.328 127.563 121.277 127.514 121.227 127.464C120.316 126.553 119.888 125.34 119.945 124.145C119.953 124.062 119.959 123.982 119.964 123.9C120.02 122.704 119.593 121.492 118.682 120.58C117.76 119.659 116.531 119.231 115.324 119.3C115.267 119.303 115.209 119.307 115.151 119.313C113.944 119.38 112.715 118.952 111.794 118.032C111.669 117.908 111.553 117.777 111.448 117.642C110.085 115.917 110.201 113.406 111.794 111.814C112.742 110.865 114.017 110.441 115.256 110.54C116.262 110.619 117.245 111.045 118.014 111.814C118.898 112.698 119.327 113.865 119.3 115.022C119.277 115.186 119.263 115.35 119.262 115.518C119.238 116.671 119.667 117.835 120.549 118.716C121.423 119.591 122.574 120.021 123.722 120.003C123.903 120 124.085 119.987 124.265 119.962C125.414 119.939 126.57 120.37 127.448 121.247C129.167 122.965 129.167 125.748 127.448 127.467V127.47Z" fill="white"/>
<path d="M105.428 109.848C107.857 109.848 109.826 107.879 109.826 105.45C109.826 103.022 107.857 101.053 105.428 101.053C103 101.053 101.031 103.022 101.031 105.45C101.031 107.879 103 109.848 105.428 109.848Z" fill="white"/>
<g opacity="0.6" style="mix-blend-mode:overlay">
<path d="M136.57 105.45C136.57 105.523 136.57 105.597 136.564 105.668C136.561 105.734 136.556 105.799 136.55 105.863C136.547 105.896 136.544 105.927 136.54 105.958C136.536 106.004 136.53 106.048 136.522 106.093C136.519 106.123 136.515 106.152 136.509 106.181C136.504 106.209 136.5 106.237 136.494 106.264C136.487 106.31 136.476 106.356 136.466 106.402C136.463 106.419 136.458 106.437 136.452 106.455C136.444 106.501 136.432 106.547 136.418 106.593C136.352 106.844 136.263 107.086 136.154 107.317C136.135 107.359 136.114 107.4 136.092 107.442C136.053 107.521 136.01 107.598 135.966 107.674C135.946 107.709 135.926 107.743 135.903 107.777C135.889 107.801 135.874 107.825 135.857 107.849C135.838 107.88 135.817 107.911 135.796 107.941C135.724 108.048 135.647 108.148 135.565 108.248C135.561 108.251 135.558 108.255 135.556 108.258C135.549 108.267 135.543 108.275 135.535 108.282C135.512 108.31 135.488 108.338 135.463 108.367C135.437 108.395 135.414 108.422 135.387 108.448C135.381 108.456 135.374 108.463 135.366 108.471C135.32 108.522 135.27 108.573 135.219 108.619C135.215 108.623 135.21 108.628 135.207 108.631C135.164 108.672 135.12 108.712 135.074 108.753C135.05 108.775 135.028 108.794 135.004 108.812C134.962 108.849 134.919 108.883 134.875 108.917C134.867 108.923 134.861 108.929 134.854 108.934C134.796 108.98 134.735 109.023 134.674 109.066C134.672 109.069 134.669 109.07 134.667 109.07C134.603 109.115 134.538 109.158 134.473 109.198C134.339 109.281 134.2 109.357 134.057 109.423C133.9 109.499 133.737 109.564 133.57 109.619C133.517 109.637 133.463 109.655 133.41 109.67C133.391 109.677 133.371 109.682 133.354 109.686C133.305 109.699 133.257 109.713 133.208 109.725C133.164 109.736 133.119 109.745 133.073 109.754C133.06 109.757 133.046 109.76 133.035 109.763C132.977 109.775 132.917 109.785 132.858 109.794C132.849 109.794 132.84 109.797 132.831 109.799C132.778 109.806 132.724 109.814 132.669 109.82C132.666 109.82 132.663 109.821 132.659 109.821C132.629 109.824 132.598 109.827 132.567 109.83C132.506 109.836 132.444 109.84 132.382 109.842C132.312 109.846 132.242 109.848 132.171 109.848C130.881 109.848 129.722 109.293 128.918 108.408H128.916C128.866 108.343 128.812 108.282 128.757 108.221H128.756C127.951 107.335 126.792 106.78 125.503 106.78C124.213 106.78 123.029 107.347 122.223 108.248C122.184 108.291 122.145 108.335 122.108 108.38C121.302 109.281 120.131 109.848 118.828 109.848C118.652 109.848 118.478 109.837 118.307 109.817C116.124 109.56 114.431 107.703 114.431 105.45C114.431 104.109 115.032 102.908 115.979 102.102C116.746 101.446 117.742 101.053 118.828 101.053C120.08 101.053 121.207 101.574 122.007 102.412C122.107 102.544 122.214 102.671 122.331 102.791C123.129 103.623 124.256 104.143 125.503 104.143C126.749 104.143 127.858 103.632 128.656 102.809C128.782 102.678 128.903 102.54 129.011 102.394C129.808 101.566 130.93 101.053 132.171 101.053C134.6 101.053 136.57 103.021 136.57 105.45Z" fill="white"/>
<path d="M127.448 83.4092C127.5 83.4612 127.551 83.5146 127.598 83.568C127.643 83.617 127.686 83.666 127.726 83.715C127.747 83.7402 127.767 83.7639 127.785 83.7892C127.815 83.8248 127.842 83.8604 127.868 83.8975C127.888 83.9213 127.905 83.945 127.92 83.9687C127.936 83.9925 127.954 84.0148 127.969 84.0385C127.996 84.0756 128.021 84.1157 128.046 84.1557C128.057 84.1706 128.066 84.1869 128.075 84.2032C128.101 84.2418 128.125 84.2834 128.147 84.3249C128.278 84.549 128.385 84.7835 128.472 85.024C128.489 85.067 128.503 85.1115 128.517 85.156C128.545 85.2392 128.569 85.3238 128.591 85.4083C128.603 85.4469 128.612 85.4855 128.621 85.5256C128.627 85.5523 128.634 85.5805 128.638 85.6087C128.647 85.6443 128.655 85.6814 128.661 85.717C128.684 85.8447 128.702 85.9694 128.714 86.0985C128.714 86.1044 128.714 86.1089 128.714 86.1118C128.714 86.1237 128.716 86.1326 128.716 86.143C128.719 86.1801 128.722 86.2157 128.725 86.2543C128.726 86.2914 128.729 86.327 128.729 86.3656C128.729 86.3745 128.729 86.3849 128.729 86.3968C128.733 86.4665 128.733 86.5378 128.729 86.606C128.729 86.612 128.729 86.6179 128.729 86.6224C128.729 86.6817 128.725 86.7426 128.72 86.8034C128.72 86.8361 128.717 86.8658 128.713 86.8954C128.71 86.9504 128.704 87.0053 128.696 87.0617C128.696 87.0706 128.696 87.0795 128.693 87.0884C128.684 87.1626 128.673 87.2353 128.659 87.308C128.659 87.3125 128.659 87.3155 128.658 87.3169C128.644 87.3941 128.628 87.4698 128.61 87.544C128.575 87.6969 128.53 87.8497 128.477 87.9967C128.419 88.1614 128.349 88.3232 128.27 88.479C128.245 88.5295 128.22 88.5799 128.193 88.6274C128.184 88.6467 128.174 88.663 128.165 88.6794C128.14 88.7239 128.116 88.7669 128.089 88.81C128.066 88.85 128.04 88.8871 128.015 88.9257C128.008 88.9376 128 88.9495 127.994 88.9599C127.962 89.0088 127.928 89.0578 127.892 89.1068C127.886 89.1142 127.882 89.1216 127.876 89.1291C127.843 89.1721 127.81 89.2151 127.776 89.2582C127.775 89.2597 127.773 89.2641 127.77 89.2671C127.751 89.2908 127.732 89.3146 127.711 89.3383C127.672 89.3858 127.631 89.4333 127.588 89.4778C127.542 89.5298 127.493 89.5802 127.442 89.6307C126.531 90.542 125.318 90.9694 124.124 90.913H124.122C124.042 90.9041 123.96 90.8981 123.879 90.8937H123.877C122.683 90.8373 121.472 91.2647 120.559 92.176C119.637 93.0976 119.21 94.3265 119.278 95.5331C119.281 95.591 119.285 95.6488 119.291 95.7067C119.358 96.9133 118.931 98.1422 118.011 99.0638C117.886 99.1885 117.755 99.3042 117.62 99.4096C115.896 100.772 113.385 100.656 111.792 99.0638C110.844 98.1155 110.419 96.8406 110.519 95.6013C110.597 94.5951 111.023 93.6126 111.792 92.8438C112.677 91.9593 113.843 91.5304 115.001 91.5571C115.164 91.5808 115.329 91.5942 115.497 91.5957C116.65 91.6194 117.813 91.1905 118.695 90.3089C119.569 89.4348 119.999 88.2831 119.982 87.1359C119.979 86.9548 119.965 86.7723 119.94 86.5927C119.918 85.444 120.348 84.2878 121.225 83.4092C122.944 81.6906 125.727 81.6906 127.445 83.4092H127.448Z" fill="white"/>
<path d="M105.428 74.2891C105.501 74.2891 105.575 74.2891 105.646 74.295C105.712 74.298 105.777 74.3024 105.841 74.3084C105.874 74.3113 105.905 74.3143 105.936 74.3187C105.982 74.3232 106.026 74.3291 106.071 74.3366C106.101 74.3395 106.13 74.344 106.158 74.3499C106.187 74.3544 106.215 74.3588 106.242 74.3648C106.288 74.3722 106.334 74.3826 106.38 74.393C106.397 74.3959 106.415 74.4004 106.433 74.4063C106.479 74.4152 106.525 74.4271 106.571 74.4404C106.822 74.5072 107.064 74.5963 107.295 74.7046C107.337 74.7239 107.378 74.7447 107.42 74.767C107.499 74.8055 107.576 74.8486 107.651 74.8931C107.687 74.9124 107.721 74.9332 107.755 74.9554C107.779 74.9703 107.803 74.9851 107.827 75.0014C107.858 75.0207 107.889 75.0415 107.919 75.0623C108.025 75.135 108.126 75.2122 108.226 75.2938C108.229 75.2983 108.233 75.3012 108.236 75.3027C108.245 75.3101 108.253 75.3161 108.26 75.3235C108.288 75.3472 108.316 75.371 108.345 75.3962C108.373 75.4215 108.399 75.4452 108.426 75.4719C108.434 75.4779 108.441 75.4853 108.448 75.4927C108.5 75.5387 108.551 75.5892 108.597 75.6396C108.601 75.6441 108.606 75.6485 108.609 75.6515C108.65 75.6945 108.69 75.7391 108.73 75.7851C108.753 75.8088 108.772 75.8311 108.79 75.8548C108.827 75.8964 108.861 75.9394 108.895 75.9839C108.901 75.9914 108.907 75.9973 108.912 76.0047C108.958 76.0626 109.001 76.1234 109.044 76.1843C109.047 76.1873 109.048 76.1902 109.048 76.1917C109.093 76.2555 109.136 76.3208 109.176 76.3861C109.259 76.5197 109.334 76.6592 109.401 76.8017C109.477 76.959 109.542 77.1223 109.597 77.2885C109.615 77.3419 109.633 77.3953 109.648 77.4488C109.655 77.4681 109.66 77.4874 109.664 77.5052C109.677 77.5541 109.691 77.6016 109.703 77.6506C109.714 77.6951 109.723 77.7397 109.732 77.7857C109.735 77.799 109.738 77.8124 109.741 77.8243C109.753 77.8821 109.763 77.9415 109.772 78.0009C109.772 78.0098 109.775 78.0187 109.777 78.0276C109.784 78.081 109.792 78.1344 109.798 78.1894C109.798 78.1923 109.799 78.1953 109.799 78.1997C109.802 78.2294 109.805 78.2606 109.808 78.2918C109.814 78.3526 109.818 78.4149 109.82 78.4773C109.824 78.547 109.826 78.6168 109.826 78.688C109.826 79.9777 109.271 81.1368 108.386 81.9412H108.385C108.321 81.9932 108.26 82.0466 108.199 82.1015H108.198C107.313 82.9074 106.758 84.0665 106.758 85.3562C106.758 86.6593 107.325 87.8303 108.226 88.6361C108.269 88.6747 108.313 88.7133 108.358 88.7504C109.259 89.5563 109.826 90.7273 109.826 92.0303C109.826 92.207 109.815 92.3806 109.795 92.5513C109.538 94.7344 107.681 96.4278 105.428 96.4278C104.087 96.4278 102.886 95.8267 102.08 94.8799C101.424 94.1126 101.031 93.1167 101.031 92.0303C101.031 90.7792 101.552 89.6513 102.39 88.8513C102.522 88.7519 102.648 88.645 102.769 88.5278C103.601 87.7293 104.121 86.6029 104.121 85.3562C104.121 84.1199 103.61 83.0009 102.787 82.2024C102.656 82.0763 102.518 81.9561 102.372 81.8477C101.544 81.0508 101.031 79.9288 101.031 78.688C101.031 76.2585 102.999 74.2891 105.428 74.2891Z" fill="white"/>
<path d="M83.3886 83.4091C83.4405 83.3571 83.494 83.3067 83.5474 83.2592C83.5964 83.2147 83.6453 83.1716 83.6943 83.1316C83.7195 83.1108 83.7433 83.09 83.7685 83.0722C83.8041 83.0425 83.8398 83.0158 83.8769 82.9891C83.9006 82.9698 83.9244 82.952 83.9481 82.9371C83.9718 82.9208 83.9941 82.903 84.0179 82.8882C84.055 82.8614 84.095 82.8362 84.1351 82.811C84.1499 82.8006 84.1663 82.7917 84.1826 82.7828C84.2212 82.7561 84.2627 82.7323 84.3043 82.7101C84.5284 82.5795 84.7629 82.4726 85.0033 82.385C85.0464 82.3687 85.0909 82.3539 85.1354 82.3405C85.2185 82.3123 85.3031 82.2886 85.3877 82.2663C85.4263 82.2544 85.4649 82.2455 85.505 82.2366C85.5317 82.2307 85.5599 82.2233 85.5881 82.2188C85.6237 82.2099 85.6608 82.2025 85.6964 82.1966C85.824 82.1728 85.9487 82.155 86.0778 82.1431C86.0838 82.1431 86.0882 82.1431 86.0912 82.1431C86.1031 82.1431 86.112 82.1416 86.1223 82.1416C86.1595 82.1387 86.1951 82.1357 86.2337 82.1327C86.2708 82.1313 86.3064 82.1283 86.345 82.1283C86.3539 82.1283 86.3643 82.1283 86.3761 82.1283C86.4459 82.1238 86.5171 82.1238 86.5854 82.1283C86.5913 82.1283 86.5973 82.1283 86.6017 82.1283C86.6611 82.1283 86.7219 82.1327 86.7828 82.1372C86.8154 82.1372 86.8451 82.1402 86.8748 82.1446C86.9297 82.1476 86.9846 82.1535 87.041 82.1609C87.0499 82.1609 87.0588 82.1609 87.0677 82.1639C87.1419 82.1728 87.2147 82.1847 87.2874 82.198C87.2918 82.198 87.2948 82.198 87.2963 82.1995C87.3735 82.2129 87.4492 82.2292 87.5234 82.247C87.6762 82.2826 87.8291 82.3272 87.976 82.3806C88.1408 82.4385 88.3025 82.5082 88.4584 82.5869C88.5088 82.6121 88.5593 82.6373 88.6068 82.6641C88.6261 82.673 88.6424 82.6833 88.6587 82.6923C88.7033 82.7175 88.7463 82.7412 88.7893 82.7679C88.8294 82.7917 88.8665 82.8169 88.9051 82.8421C88.917 82.8496 88.9288 82.857 88.9392 82.8629C88.9882 82.8956 89.0372 82.9297 89.0862 82.9653C89.0936 82.9713 89.101 82.9757 89.1084 82.9817C89.1515 83.0143 89.1945 83.047 89.2375 83.0811C89.239 83.0826 89.2435 83.0841 89.2464 83.087C89.2702 83.1063 89.2939 83.1256 89.3177 83.1464C89.3652 83.185 89.4127 83.2265 89.4572 83.2696C89.5091 83.3156 89.5596 83.3646 89.6101 83.415C90.5213 84.3263 90.9487 85.5388 90.8923 86.7335C90.8834 86.8167 90.8775 86.8968 90.8731 86.9784C90.8167 88.1746 91.2441 89.3872 92.1553 90.2984C93.077 91.2201 94.3058 91.6475 95.5124 91.5792C95.5703 91.5763 95.6282 91.5718 95.6861 91.5659C96.8927 91.4991 98.1215 91.9265 99.0432 92.8467C99.1679 92.9713 99.2836 93.1019 99.389 93.237C100.751 94.9615 100.636 97.4727 99.0432 99.0652C98.0948 100.014 96.82 100.438 95.5807 100.339C94.5745 100.26 93.592 99.8339 92.8232 99.0652C91.9387 98.1806 91.5097 97.0141 91.5365 95.8565C91.5602 95.6932 91.5736 95.5285 91.575 95.3608C91.5988 94.2076 91.1699 93.0441 90.2883 92.1625C89.4142 91.2883 88.2625 90.8579 87.1152 90.8757C86.9342 90.8787 86.7516 90.8921 86.572 90.9173C85.4233 90.9396 84.2672 90.5092 83.3886 89.632C81.67 87.9134 81.67 85.1307 83.3886 83.4121V83.4091Z" fill="white"/>
<path d="M74.2881 105.45C74.2881 105.378 74.2881 105.303 74.294 105.232C74.297 105.167 74.3014 105.102 74.3074 105.038C74.3103 105.005 74.3133 104.974 74.3178 104.943C74.3222 104.897 74.3282 104.852 74.3356 104.808C74.3385 104.778 74.343 104.748 74.3489 104.72C74.3534 104.692 74.3578 104.664 74.3638 104.637C74.3712 104.591 74.3816 104.545 74.392 104.499C74.3949 104.481 74.3994 104.463 74.4053 104.446C74.4142 104.4 74.4261 104.354 74.4395 104.308C74.5063 104.057 74.5953 103.815 74.7036 103.583C74.7229 103.542 74.7437 103.5 74.766 103.459C74.8046 103.38 74.8476 103.303 74.8921 103.227C74.9114 103.191 74.9322 103.157 74.9545 103.123C74.9693 103.099 74.9841 103.076 75.0005 103.052C75.0198 103.021 75.0405 102.99 75.0613 102.96C75.134 102.853 75.2112 102.752 75.2928 102.653C75.2973 102.65 75.3003 102.645 75.3017 102.642C75.3092 102.633 75.3151 102.626 75.3225 102.619C75.3463 102.59 75.37 102.562 75.3952 102.534C75.4205 102.506 75.4442 102.479 75.4709 102.452C75.4769 102.445 75.4843 102.438 75.4917 102.43C75.5377 102.378 75.5882 102.328 75.6386 102.282C75.6431 102.277 75.6475 102.273 75.6505 102.27C75.6936 102.228 75.7381 102.188 75.7841 102.148C75.8078 102.126 75.8301 102.107 75.8538 102.089C75.8954 102.052 75.9384 102.018 75.983 101.983C75.9904 101.977 75.9963 101.972 76.0037 101.967C76.0616 101.921 76.1225 101.878 76.1833 101.835C76.1863 101.832 76.1893 101.831 76.1907 101.831C76.2546 101.786 76.3199 101.743 76.3852 101.703C76.5187 101.62 76.6582 101.544 76.8007 101.477C76.958 101.402 77.1213 101.336 77.2875 101.281C77.3409 101.264 77.3944 101.246 77.4478 101.231C77.4671 101.224 77.4864 101.219 77.5042 101.215C77.5532 101.201 77.6007 101.188 77.6496 101.176C77.6942 101.164 77.7387 101.155 77.7847 101.146C77.7981 101.143 77.8114 101.14 77.8233 101.137C77.8812 101.126 77.9405 101.115 77.9999 101.106C78.0088 101.106 78.0177 101.103 78.0266 101.102C78.08 101.094 78.1335 101.087 78.1884 101.081C78.1914 101.081 78.1943 101.08 78.1988 101.08C78.2285 101.077 78.2596 101.074 78.2908 101.071C78.3516 101.065 78.414 101.06 78.4763 101.059C78.5461 101.054 78.6158 101.053 78.687 101.053C79.9768 101.053 81.1359 101.608 81.9403 102.492H81.9417C81.9922 102.558 82.0456 102.619 82.1006 102.679H82.102C82.9064 103.565 84.0655 104.121 85.3552 104.121C86.645 104.121 87.8293 103.554 88.6352 102.653C88.6738 102.61 88.7124 102.565 88.7495 102.521C89.5553 101.62 90.7263 101.053 92.0294 101.053C92.206 101.053 92.3796 101.063 92.5503 101.084C94.7335 101.341 96.4269 103.197 96.4269 105.45C96.4269 106.792 95.8258 107.993 94.8789 108.799C94.1116 109.454 93.1158 109.848 92.0294 109.848C90.7783 109.848 89.6503 109.327 88.8504 108.488C88.7509 108.356 88.6441 108.23 88.5268 108.11C87.7284 107.277 86.6019 106.758 85.3552 106.758C84.119 106.758 82.9999 107.268 82.2015 108.092C82.0753 108.223 81.9551 108.361 81.8468 108.506C81.0498 109.334 79.9278 109.848 78.687 109.848C76.2575 109.848 74.2881 107.88 74.2881 105.45Z" fill="white"/>
<path d="M83.3889 127.449C83.337 127.397 83.2865 127.343 83.239 127.29C83.1945 127.241 83.1514 127.192 83.1114 127.143C83.0906 127.118 83.0698 127.094 83.052 127.069C83.0223 127.033 82.9956 126.998 82.9689 126.961C82.9496 126.937 82.9318 126.913 82.917 126.889C82.9006 126.866 82.8828 126.843 82.868 126.82C82.8413 126.782 82.816 126.742 82.7908 126.702C82.7804 126.687 82.7715 126.671 82.7626 126.655C82.7359 126.616 82.7121 126.575 82.6899 126.533C82.5593 126.309 82.4524 126.075 82.3649 125.834C82.3485 125.791 82.3337 125.747 82.3203 125.702C82.2921 125.619 82.2684 125.534 82.2461 125.45C82.2343 125.411 82.2253 125.373 82.2164 125.332C82.2105 125.306 82.2031 125.278 82.1986 125.249C82.1897 125.214 82.1823 125.177 82.1764 125.141C82.1526 125.013 82.1348 124.889 82.1229 124.76C82.1229 124.754 82.1229 124.749 82.1229 124.746C82.1229 124.734 82.1215 124.725 82.1215 124.715C82.1185 124.678 82.1155 124.642 82.1126 124.604C82.1111 124.567 82.1081 124.531 82.1081 124.492C82.1081 124.484 82.1081 124.473 82.1081 124.461C82.1037 124.392 82.1037 124.32 82.1081 124.252C82.1081 124.246 82.1081 124.24 82.1081 124.236C82.1081 124.176 82.1126 124.115 82.117 124.055C82.117 124.022 82.12 123.992 82.1244 123.963C82.1274 123.908 82.1333 123.853 82.1408 123.796C82.1408 123.787 82.1408 123.779 82.1437 123.77C82.1526 123.695 82.1645 123.623 82.1779 123.55C82.1779 123.546 82.1779 123.543 82.1793 123.541C82.1927 123.464 82.209 123.388 82.2268 123.314C82.2625 123.161 82.307 123.008 82.3604 122.861C82.4183 122.697 82.488 122.535 82.5667 122.379C82.5919 122.329 82.6172 122.278 82.6439 122.231C82.6528 122.211 82.6632 122.195 82.6721 122.179C82.6973 122.134 82.721 122.091 82.7478 122.048C82.7715 122.008 82.7967 121.971 82.822 121.932C82.8294 121.92 82.8368 121.909 82.8427 121.898C82.8754 121.849 82.9095 121.8 82.9452 121.751C82.9511 121.744 82.9555 121.736 82.9615 121.729C82.9941 121.686 83.0268 121.643 83.0609 121.6C83.0624 121.598 83.0639 121.594 83.0669 121.591C83.0861 121.567 83.1054 121.543 83.1262 121.52C83.1648 121.472 83.2064 121.425 83.2494 121.38C83.2954 121.328 83.3444 121.278 83.3948 121.227C84.3061 120.316 85.5186 119.889 86.7134 119.945H86.7148C86.795 119.954 86.8766 119.96 86.9582 119.964H86.9597C88.1545 120.021 89.3655 119.593 90.2782 118.682C91.1999 117.76 91.6273 116.532 91.559 115.325C91.5561 115.267 91.5516 115.209 91.5457 115.151C91.4789 113.945 91.9063 112.716 92.8265 111.794C92.9512 111.67 93.0818 111.554 93.2168 111.448C94.9414 110.086 97.4525 110.202 99.045 111.794C99.9934 112.743 100.418 114.017 100.318 115.257C100.24 116.263 99.8138 117.245 99.045 118.014C98.1605 118.899 96.9939 119.328 95.8363 119.301C95.6731 119.277 95.5083 119.264 95.3406 119.262C94.1874 119.239 93.0239 119.668 92.1423 120.549C91.2607 121.431 90.8378 122.575 90.8556 123.722C90.8585 123.903 90.8719 124.086 90.8971 124.265C90.9194 125.414 90.489 126.57 89.6119 127.449C87.8932 129.167 85.1105 129.167 83.3919 127.449H83.3889Z" fill="white"/>
<path d="M105.428 136.57C105.356 136.57 105.281 136.57 105.21 136.564C105.145 136.561 105.079 136.557 105.016 136.551C104.983 136.548 104.952 136.545 104.921 136.541C104.875 136.536 104.83 136.53 104.786 136.523C104.756 136.52 104.726 136.515 104.698 136.509C104.67 136.505 104.642 136.5 104.615 136.495C104.569 136.487 104.523 136.477 104.477 136.466C104.459 136.463 104.441 136.459 104.424 136.453C104.377 136.444 104.331 136.432 104.285 136.419C104.035 136.352 103.793 136.263 103.561 136.155C103.52 136.135 103.478 136.115 103.437 136.092C103.358 136.054 103.281 136.011 103.205 135.966C103.169 135.947 103.135 135.926 103.101 135.904C103.077 135.889 103.054 135.874 103.03 135.858C102.999 135.839 102.968 135.818 102.938 135.797C102.831 135.724 102.73 135.647 102.631 135.565C102.628 135.561 102.623 135.558 102.62 135.557C102.611 135.549 102.604 135.543 102.597 135.536C102.568 135.512 102.54 135.488 102.512 135.463C102.484 135.438 102.457 135.414 102.43 135.387C102.423 135.381 102.415 135.374 102.408 135.367C102.356 135.321 102.306 135.27 102.26 135.22C102.255 135.215 102.251 135.211 102.248 135.208C102.206 135.165 102.166 135.12 102.126 135.074C102.104 135.05 102.085 135.028 102.067 135.004C102.03 134.963 101.995 134.92 101.961 134.875C101.955 134.868 101.949 134.862 101.945 134.855C101.899 134.797 101.856 134.736 101.813 134.675C101.81 134.672 101.808 134.669 101.808 134.668C101.764 134.604 101.721 134.538 101.681 134.473C101.598 134.34 101.522 134.2 101.455 134.058C101.38 133.9 101.314 133.737 101.259 133.571C101.242 133.517 101.224 133.464 101.209 133.41C101.201 133.391 101.197 133.372 101.193 133.354C101.179 133.305 101.166 133.258 101.154 133.209C101.142 133.164 101.133 133.12 101.124 133.074C101.121 133.06 101.118 133.047 101.115 133.035C101.104 132.977 101.093 132.918 101.084 132.858C101.084 132.849 101.081 132.841 101.08 132.832C101.072 132.778 101.065 132.725 101.059 132.67C101.059 132.667 101.057 132.664 101.057 132.66C101.055 132.63 101.052 132.599 101.049 132.568C101.043 132.507 101.038 132.444 101.037 132.382C101.032 132.312 101.031 132.242 101.031 132.171C101.031 130.882 101.586 129.722 102.47 128.918H102.472C102.536 128.866 102.597 128.813 102.657 128.758H102.659C103.543 127.952 104.098 126.793 104.098 125.503C104.098 124.2 103.532 123.029 102.631 122.223C102.588 122.185 102.543 122.146 102.499 122.109C101.598 121.303 101.031 120.132 101.031 118.829C101.031 118.652 101.041 118.479 101.062 118.308C101.319 116.125 103.175 114.431 105.428 114.431C106.77 114.431 107.971 115.033 108.776 115.979C109.432 116.747 109.826 117.743 109.826 118.829C109.826 120.08 109.305 121.208 108.466 122.008C108.334 122.107 108.208 122.214 108.088 122.331C107.255 123.13 106.736 124.256 106.736 125.503C106.736 126.739 107.246 127.858 108.07 128.657C108.201 128.783 108.339 128.903 108.484 129.012C109.312 129.809 109.826 130.931 109.826 132.171C109.826 134.601 107.858 136.57 105.428 136.57Z" fill="white"/>
<path d="M127.448 127.47C127.396 127.522 127.343 127.572 127.29 127.62C127.241 127.664 127.192 127.707 127.143 127.747C127.117 127.768 127.094 127.789 127.068 127.807C127.033 127.836 126.997 127.863 126.96 127.89C126.936 127.909 126.913 127.927 126.889 127.942C126.865 127.958 126.843 127.976 126.819 127.991C126.782 128.017 126.742 128.043 126.702 128.068C126.687 128.078 126.671 128.087 126.654 128.096C126.616 128.123 126.574 128.147 126.533 128.169C126.309 128.299 126.074 128.406 125.834 128.494C125.791 128.51 125.746 128.525 125.702 128.538C125.618 128.567 125.534 128.59 125.449 128.613C125.411 128.624 125.372 128.633 125.332 128.642C125.305 128.648 125.277 128.656 125.249 128.66C125.213 128.669 125.176 128.676 125.141 128.682C125.013 128.706 124.888 128.724 124.759 128.736C124.753 128.736 124.749 128.736 124.746 128.736C124.734 128.736 124.725 128.737 124.715 128.737C124.677 128.74 124.642 128.743 124.603 128.746C124.566 128.748 124.531 128.751 124.492 128.751C124.483 128.751 124.473 128.751 124.461 128.751C124.391 128.755 124.32 128.755 124.252 128.751C124.246 128.751 124.24 128.751 124.235 128.751C124.176 128.751 124.115 128.746 124.054 128.742C124.021 128.742 123.992 128.739 123.962 128.734C123.907 128.731 123.852 128.725 123.796 128.718C123.787 128.718 123.778 128.718 123.769 128.715C123.695 128.706 123.622 128.694 123.55 128.681C123.545 128.681 123.542 128.681 123.541 128.679C123.463 128.666 123.388 128.65 123.314 128.632C123.161 128.596 123.008 128.552 122.861 128.498C122.696 128.44 122.534 128.371 122.379 128.292C122.328 128.267 122.278 128.242 122.23 128.215C122.211 128.206 122.195 128.196 122.178 128.187C122.134 128.161 122.091 128.138 122.048 128.111C122.008 128.087 121.97 128.062 121.932 128.037C121.92 128.029 121.908 128.022 121.898 128.016C121.849 127.983 121.8 127.949 121.751 127.914C121.743 127.908 121.736 127.903 121.728 127.897C121.685 127.865 121.642 127.832 121.599 127.798C121.598 127.796 121.593 127.795 121.59 127.792C121.567 127.773 121.543 127.753 121.519 127.732C121.472 127.694 121.424 127.652 121.38 127.609C121.328 127.563 121.277 127.514 121.227 127.464C120.316 126.553 119.888 125.34 119.945 124.145C119.953 124.062 119.959 123.982 119.964 123.9C120.02 122.704 119.593 121.492 118.682 120.58C117.76 119.659 116.531 119.231 115.324 119.3C115.267 119.303 115.209 119.307 115.151 119.313C113.944 119.38 112.715 118.952 111.794 118.032C111.669 117.908 111.553 117.777 111.448 117.642C110.085 115.917 110.201 113.406 111.794 111.814C112.742 110.865 114.017 110.441 115.256 110.54C116.262 110.619 117.245 111.045 118.014 111.814C118.898 112.698 119.327 113.865 119.3 115.022C119.277 115.186 119.263 115.35 119.262 115.518C119.238 116.671 119.667 117.835 120.549 118.716C121.423 119.591 122.574 120.021 123.722 120.003C123.903 120 124.085 119.987 124.265 119.962C125.414 119.939 126.57 120.37 127.448 121.247C129.167 122.965 129.167 125.748 127.448 127.467V127.47Z" fill="white"/>
<path d="M136.57 105.45C136.57 105.523 136.57 105.597 136.564 105.668C136.561 105.734 136.556 105.799 136.55 105.863C136.547 105.896 136.544 105.927 136.54 105.958C136.536 106.004 136.53 106.048 136.522 106.093C136.519 106.123 136.515 106.152 136.509 106.181C136.504 106.209 136.5 106.237 136.494 106.264C136.487 106.31 136.476 106.356 136.466 106.402C136.463 106.419 136.458 106.437 136.452 106.455C136.444 106.501 136.432 106.547 136.418 106.593C136.352 106.844 136.263 107.086 136.154 107.317C136.135 107.359 136.114 107.4 136.092 107.442C136.053 107.521 136.01 107.598 135.966 107.674C135.946 107.709 135.926 107.743 135.903 107.777C135.889 107.801 135.874 107.825 135.857 107.849C135.838 107.88 135.817 107.911 135.796 107.941C135.724 108.048 135.647 108.148 135.565 108.248C135.561 108.251 135.558 108.255 135.556 108.258C135.549 108.267 135.543 108.275 135.535 108.282C135.512 108.31 135.488 108.338 135.463 108.367C135.437 108.395 135.414 108.422 135.387 108.448C135.381 108.456 135.374 108.463 135.366 108.471C135.32 108.522 135.27 108.573 135.219 108.619C135.215 108.623 135.21 108.628 135.207 108.631C135.164 108.672 135.12 108.712 135.074 108.753C135.05 108.775 135.028 108.794 135.004 108.812C134.962 108.849 134.919 108.883 134.875 108.917C134.867 108.923 134.861 108.929 134.854 108.934C134.796 108.98 134.735 109.023 134.674 109.066C134.672 109.069 134.669 109.07 134.667 109.07C134.603 109.115 134.538 109.158 134.473 109.198C134.339 109.281 134.2 109.357 134.057 109.423C133.9 109.499 133.737 109.564 133.57 109.619C133.517 109.637 133.463 109.655 133.41 109.67C133.391 109.677 133.371 109.682 133.354 109.686C133.305 109.699 133.257 109.713 133.208 109.725C133.164 109.736 133.119 109.745 133.073 109.754C133.06 109.757 133.046 109.76 133.035 109.763C132.977 109.775 132.917 109.785 132.858 109.794C132.849 109.794 132.84 109.797 132.831 109.799C132.778 109.806 132.724 109.814 132.669 109.82C132.666 109.82 132.663 109.821 132.659 109.821C132.629 109.824 132.598 109.827 132.567 109.83C132.506 109.836 132.444 109.84 132.382 109.842C132.312 109.846 132.242 109.848 132.171 109.848C130.881 109.848 129.722 109.293 128.918 108.408H128.916C128.866 108.343 128.812 108.282 128.757 108.221H128.756C127.951 107.335 126.792 106.78 125.503 106.78C124.213 106.78 123.029 107.347 122.223 108.248C122.184 108.291 122.145 108.335 122.108 108.38C121.302 109.281 120.131 109.848 118.828 109.848C118.652 109.848 118.478 109.837 118.307 109.817C116.124 109.56 114.431 107.703 114.431 105.45C114.431 104.109 115.032 102.908 115.979 102.102C116.746 101.446 117.742 101.053 118.828 101.053C120.08 101.053 121.207 101.574 122.007 102.412C122.107 102.544 122.214 102.671 122.331 102.791C123.129 103.623 124.256 104.143 125.503 104.143C126.749 104.143 127.858 103.632 128.656 102.809C128.782 102.678 128.903 102.54 129.011 102.394C129.808 101.566 130.93 101.053 132.171 101.053C134.6 101.053 136.57 103.021 136.57 105.45Z" fill="white"/>
<path d="M127.448 83.4092C127.5 83.4612 127.551 83.5146 127.598 83.568C127.643 83.617 127.686 83.666 127.726 83.715C127.747 83.7402 127.767 83.7639 127.785 83.7892C127.815 83.8248 127.842 83.8604 127.868 83.8975C127.888 83.9213 127.905 83.945 127.92 83.9687C127.936 83.9925 127.954 84.0148 127.969 84.0385C127.996 84.0756 128.021 84.1157 128.046 84.1557C128.057 84.1706 128.066 84.1869 128.075 84.2032C128.101 84.2418 128.125 84.2834 128.147 84.3249C128.278 84.549 128.385 84.7835 128.472 85.024C128.489 85.067 128.503 85.1115 128.517 85.156C128.545 85.2392 128.569 85.3238 128.591 85.4083C128.603 85.4469 128.612 85.4855 128.621 85.5256C128.627 85.5523 128.634 85.5805 128.638 85.6087C128.647 85.6443 128.655 85.6814 128.661 85.717C128.684 85.8447 128.702 85.9694 128.714 86.0985C128.714 86.1044 128.714 86.1089 128.714 86.1118C128.714 86.1237 128.716 86.1326 128.716 86.143C128.719 86.1801 128.722 86.2157 128.725 86.2543C128.726 86.2914 128.729 86.327 128.729 86.3656C128.729 86.3745 128.729 86.3849 128.729 86.3968C128.733 86.4665 128.733 86.5378 128.729 86.606C128.729 86.612 128.729 86.6179 128.729 86.6224C128.729 86.6817 128.725 86.7426 128.72 86.8034C128.72 86.8361 128.717 86.8658 128.713 86.8954C128.71 86.9504 128.704 87.0053 128.696 87.0617C128.696 87.0706 128.696 87.0795 128.693 87.0884C128.684 87.1626 128.673 87.2353 128.659 87.308C128.659 87.3125 128.659 87.3155 128.658 87.3169C128.644 87.3941 128.628 87.4698 128.61 87.544C128.575 87.6969 128.53 87.8497 128.477 87.9967C128.419 88.1614 128.349 88.3232 128.27 88.479C128.245 88.5295 128.22 88.5799 128.193 88.6274C128.184 88.6467 128.174 88.663 128.165 88.6794C128.14 88.7239 128.116 88.7669 128.089 88.81C128.066 88.85 128.04 88.8871 128.015 88.9257C128.008 88.9376 128 88.9495 127.994 88.9599C127.962 89.0088 127.928 89.0578 127.892 89.1068C127.886 89.1142 127.882 89.1216 127.876 89.1291C127.843 89.1721 127.81 89.2151 127.776 89.2582C127.775 89.2597 127.773 89.2641 127.77 89.2671C127.751 89.2908 127.732 89.3146 127.711 89.3383C127.672 89.3858 127.631 89.4333 127.588 89.4778C127.542 89.5298 127.493 89.5802 127.442 89.6307C126.531 90.542 125.318 90.9694 124.124 90.913H124.122C124.042 90.9041 123.96 90.8981 123.879 90.8937H123.877C122.683 90.8373 121.472 91.2647 120.559 92.176C119.637 93.0976 119.21 94.3265 119.278 95.5331C119.281 95.591 119.285 95.6488 119.291 95.7067C119.358 96.9133 118.931 98.1422 118.011 99.0638C117.886 99.1885 117.755 99.3042 117.62 99.4096C115.896 100.772 113.385 100.656 111.792 99.0638C110.844 98.1155 110.419 96.8406 110.519 95.6013C110.597 94.5951 111.023 93.6126 111.792 92.8438C112.677 91.9593 113.843 91.5304 115.001 91.5571C115.164 91.5808 115.329 91.5942 115.497 91.5957C116.65 91.6194 117.813 91.1905 118.695 90.3089C119.569 89.4348 119.999 88.2831 119.982 87.1359C119.979 86.9548 119.965 86.7723 119.94 86.5927C119.918 85.444 120.348 84.2878 121.225 83.4092C122.944 81.6906 125.727 81.6906 127.445 83.4092H127.448Z" fill="white"/>
<path d="M105.428 74.2891C105.501 74.2891 105.575 74.2891 105.646 74.295C105.712 74.298 105.777 74.3024 105.841 74.3084C105.874 74.3113 105.905 74.3143 105.936 74.3187C105.982 74.3232 106.026 74.3291 106.071 74.3366C106.101 74.3395 106.13 74.344 106.158 74.3499C106.187 74.3544 106.215 74.3588 106.242 74.3648C106.288 74.3722 106.334 74.3826 106.38 74.393C106.397 74.3959 106.415 74.4004 106.433 74.4063C106.479 74.4152 106.525 74.4271 106.571 74.4404C106.822 74.5072 107.064 74.5963 107.295 74.7046C107.337 74.7239 107.378 74.7447 107.42 74.767C107.499 74.8055 107.576 74.8486 107.651 74.8931C107.687 74.9124 107.721 74.9332 107.755 74.9554C107.779 74.9703 107.803 74.9851 107.827 75.0014C107.858 75.0207 107.889 75.0415 107.919 75.0623C108.025 75.135 108.126 75.2122 108.226 75.2938C108.229 75.2983 108.233 75.3012 108.236 75.3027C108.245 75.3101 108.253 75.3161 108.26 75.3235C108.288 75.3472 108.316 75.371 108.345 75.3962C108.373 75.4215 108.399 75.4452 108.426 75.4719C108.434 75.4779 108.441 75.4853 108.448 75.4927C108.5 75.5387 108.551 75.5892 108.597 75.6396C108.601 75.6441 108.606 75.6485 108.609 75.6515C108.65 75.6945 108.69 75.7391 108.73 75.7851C108.753 75.8088 108.772 75.8311 108.79 75.8548C108.827 75.8964 108.861 75.9394 108.895 75.9839C108.901 75.9914 108.907 75.9973 108.912 76.0047C108.958 76.0626 109.001 76.1234 109.044 76.1843C109.047 76.1873 109.048 76.1902 109.048 76.1917C109.093 76.2555 109.136 76.3208 109.176 76.3861C109.259 76.5197 109.334 76.6592 109.401 76.8017C109.477 76.959 109.542 77.1223 109.597 77.2885C109.615 77.3419 109.633 77.3953 109.648 77.4488C109.655 77.4681 109.66 77.4874 109.664 77.5052C109.677 77.5541 109.691 77.6016 109.703 77.6506C109.714 77.6951 109.723 77.7397 109.732 77.7857C109.735 77.799 109.738 77.8124 109.741 77.8243C109.753 77.8821 109.763 77.9415 109.772 78.0009C109.772 78.0098 109.775 78.0187 109.777 78.0276C109.784 78.081 109.792 78.1344 109.798 78.1894C109.798 78.1923 109.799 78.1953 109.799 78.1997C109.802 78.2294 109.805 78.2606 109.808 78.2918C109.814 78.3526 109.818 78.4149 109.82 78.4773C109.824 78.547 109.826 78.6168 109.826 78.688C109.826 79.9777 109.271 81.1368 108.386 81.9412H108.385C108.321 81.9932 108.26 82.0466 108.199 82.1015H108.198C107.313 82.9074 106.758 84.0665 106.758 85.3562C106.758 86.6593 107.325 87.8303 108.226 88.6361C108.269 88.6747 108.313 88.7133 108.358 88.7504C109.259 89.5563 109.826 90.7273 109.826 92.0303C109.826 92.207 109.815 92.3806 109.795 92.5513C109.538 94.7344 107.681 96.4278 105.428 96.4278C104.087 96.4278 102.886 95.8267 102.08 94.8799C101.424 94.1126 101.031 93.1167 101.031 92.0303C101.031 90.7792 101.552 89.6513 102.39 88.8513C102.522 88.7519 102.648 88.645 102.769 88.5278C103.601 87.7293 104.121 86.6029 104.121 85.3562C104.121 84.1199 103.61 83.0009 102.787 82.2024C102.656 82.0763 102.518 81.9561 102.372 81.8477C101.544 81.0508 101.031 79.9288 101.031 78.688C101.031 76.2585 102.999 74.2891 105.428 74.2891Z" fill="white"/>
<path d="M83.3886 83.4091C83.4405 83.3571 83.494 83.3067 83.5474 83.2592C83.5964 83.2147 83.6453 83.1716 83.6943 83.1316C83.7195 83.1108 83.7433 83.09 83.7685 83.0722C83.8041 83.0425 83.8398 83.0158 83.8769 82.9891C83.9006 82.9698 83.9244 82.952 83.9481 82.9371C83.9718 82.9208 83.9941 82.903 84.0179 82.8882C84.055 82.8614 84.095 82.8362 84.1351 82.811C84.1499 82.8006 84.1663 82.7917 84.1826 82.7828C84.2212 82.7561 84.2627 82.7323 84.3043 82.7101C84.5284 82.5795 84.7629 82.4726 85.0033 82.385C85.0464 82.3687 85.0909 82.3539 85.1354 82.3405C85.2185 82.3123 85.3031 82.2886 85.3877 82.2663C85.4263 82.2544 85.4649 82.2455 85.505 82.2366C85.5317 82.2307 85.5599 82.2233 85.5881 82.2188C85.6237 82.2099 85.6608 82.2025 85.6964 82.1966C85.824 82.1728 85.9487 82.155 86.0778 82.1431C86.0838 82.1431 86.0882 82.1431 86.0912 82.1431C86.1031 82.1431 86.112 82.1416 86.1223 82.1416C86.1595 82.1387 86.1951 82.1357 86.2337 82.1327C86.2708 82.1313 86.3064 82.1283 86.345 82.1283C86.3539 82.1283 86.3643 82.1283 86.3761 82.1283C86.4459 82.1238 86.5171 82.1238 86.5854 82.1283C86.5913 82.1283 86.5973 82.1283 86.6017 82.1283C86.6611 82.1283 86.7219 82.1327 86.7828 82.1372C86.8154 82.1372 86.8451 82.1402 86.8748 82.1446C86.9297 82.1476 86.9846 82.1535 87.041 82.1609C87.0499 82.1609 87.0588 82.1609 87.0677 82.1639C87.1419 82.1728 87.2147 82.1847 87.2874 82.198C87.2918 82.198 87.2948 82.198 87.2963 82.1995C87.3735 82.2129 87.4492 82.2292 87.5234 82.247C87.6762 82.2826 87.8291 82.3272 87.976 82.3806C88.1408 82.4385 88.3025 82.5082 88.4584 82.5869C88.5088 82.6121 88.5593 82.6373 88.6068 82.6641C88.6261 82.673 88.6424 82.6833 88.6587 82.6923C88.7033 82.7175 88.7463 82.7412 88.7893 82.7679C88.8294 82.7917 88.8665 82.8169 88.9051 82.8421C88.917 82.8496 88.9288 82.857 88.9392 82.8629C88.9882 82.8956 89.0372 82.9297 89.0862 82.9653C89.0936 82.9713 89.101 82.9757 89.1084 82.9817C89.1515 83.0143 89.1945 83.047 89.2375 83.0811C89.239 83.0826 89.2435 83.0841 89.2464 83.087C89.2702 83.1063 89.2939 83.1256 89.3177 83.1464C89.3652 83.185 89.4127 83.2265 89.4572 83.2696C89.5091 83.3156 89.5596 83.3646 89.6101 83.415C90.5213 84.3263 90.9487 85.5388 90.8923 86.7335C90.8834 86.8167 90.8775 86.8968 90.8731 86.9784C90.8167 88.1746 91.2441 89.3872 92.1553 90.2984C93.077 91.2201 94.3058 91.6475 95.5124 91.5792C95.5703 91.5763 95.6282 91.5718 95.6861 91.5659C96.8927 91.4991 98.1215 91.9265 99.0432 92.8467C99.1679 92.9713 99.2836 93.1019 99.389 93.237C100.751 94.9615 100.636 97.4727 99.0432 99.0652C98.0948 100.014 96.82 100.438 95.5807 100.339C94.5745 100.26 93.592 99.8339 92.8232 99.0652C91.9387 98.1806 91.5097 97.0141 91.5365 95.8565C91.5602 95.6932 91.5736 95.5285 91.575 95.3608C91.5988 94.2076 91.1699 93.0441 90.2883 92.1625C89.4142 91.2883 88.2625 90.8579 87.1152 90.8757C86.9342 90.8787 86.7516 90.8921 86.572 90.9173C85.4233 90.9396 84.2672 90.5092 83.3886 89.632C81.67 87.9134 81.67 85.1307 83.3886 83.4121V83.4091Z" fill="white"/>
<path d="M74.2881 105.45C74.2881 105.378 74.2881 105.303 74.294 105.232C74.297 105.167 74.3014 105.102 74.3074 105.038C74.3103 105.005 74.3133 104.974 74.3178 104.943C74.3222 104.897 74.3282 104.852 74.3356 104.808C74.3385 104.778 74.343 104.748 74.3489 104.72C74.3534 104.692 74.3578 104.664 74.3638 104.637C74.3712 104.591 74.3816 104.545 74.392 104.499C74.3949 104.481 74.3994 104.463 74.4053 104.446C74.4142 104.4 74.4261 104.354 74.4395 104.308C74.5063 104.057 74.5953 103.815 74.7036 103.583C74.7229 103.542 74.7437 103.5 74.766 103.459C74.8046 103.38 74.8476 103.303 74.8921 103.227C74.9114 103.191 74.9322 103.157 74.9545 103.123C74.9693 103.099 74.9841 103.076 75.0005 103.052C75.0198 103.021 75.0405 102.99 75.0613 102.96C75.134 102.853 75.2112 102.752 75.2928 102.653C75.2973 102.65 75.3003 102.645 75.3017 102.642C75.3092 102.633 75.3151 102.626 75.3225 102.619C75.3463 102.59 75.37 102.562 75.3952 102.534C75.4205 102.506 75.4442 102.479 75.4709 102.452C75.4769 102.445 75.4843 102.438 75.4917 102.43C75.5377 102.378 75.5882 102.328 75.6386 102.282C75.6431 102.277 75.6475 102.273 75.6505 102.27C75.6936 102.228 75.7381 102.188 75.7841 102.148C75.8078 102.126 75.8301 102.107 75.8538 102.089C75.8954 102.052 75.9384 102.018 75.983 101.983C75.9904 101.977 75.9963 101.972 76.0037 101.967C76.0616 101.921 76.1225 101.878 76.1833 101.835C76.1863 101.832 76.1893 101.831 76.1907 101.831C76.2546 101.786 76.3199 101.743 76.3852 101.703C76.5187 101.62 76.6582 101.544 76.8007 101.477C76.958 101.402 77.1213 101.336 77.2875 101.281C77.3409 101.264 77.3944 101.246 77.4478 101.231C77.4671 101.224 77.4864 101.219 77.5042 101.215C77.5532 101.201 77.6007 101.188 77.6496 101.176C77.6942 101.164 77.7387 101.155 77.7847 101.146C77.7981 101.143 77.8114 101.14 77.8233 101.137C77.8812 101.126 77.9405 101.115 77.9999 101.106C78.0088 101.106 78.0177 101.103 78.0266 101.102C78.08 101.094 78.1335 101.087 78.1884 101.081C78.1914 101.081 78.1943 101.08 78.1988 101.08C78.2285 101.077 78.2596 101.074 78.2908 101.071C78.3516 101.065 78.414 101.06 78.4763 101.059C78.5461 101.054 78.6158 101.053 78.687 101.053C79.9768 101.053 81.1359 101.608 81.9403 102.492H81.9417C81.9922 102.558 82.0456 102.619 82.1006 102.679H82.102C82.9064 103.565 84.0655 104.121 85.3552 104.121C86.645 104.121 87.8293 103.554 88.6352 102.653C88.6738 102.61 88.7124 102.565 88.7495 102.521C89.5553 101.62 90.7263 101.053 92.0294 101.053C92.206 101.053 92.3796 101.063 92.5503 101.084C94.7335 101.341 96.4269 103.197 96.4269 105.45C96.4269 106.792 95.8258 107.993 94.8789 108.799C94.1116 109.454 93.1158 109.848 92.0294 109.848C90.7783 109.848 89.6503 109.327 88.8504 108.488C88.7509 108.356 88.6441 108.23 88.5268 108.11C87.7284 107.277 86.6019 106.758 85.3552 106.758C84.119 106.758 82.9999 107.268 82.2015 108.092C82.0753 108.223 81.9551 108.361 81.8468 108.506C81.0498 109.334 79.9278 109.848 78.687 109.848C76.2575 109.848 74.2881 107.88 74.2881 105.45Z" fill="white"/>
<path d="M83.3889 127.449C83.337 127.397 83.2865 127.343 83.239 127.29C83.1945 127.241 83.1514 127.192 83.1114 127.143C83.0906 127.118 83.0698 127.094 83.052 127.069C83.0223 127.033 82.9956 126.998 82.9689 126.961C82.9496 126.937 82.9318 126.913 82.917 126.889C82.9006 126.866 82.8828 126.843 82.868 126.82C82.8413 126.782 82.816 126.742 82.7908 126.702C82.7804 126.687 82.7715 126.671 82.7626 126.655C82.7359 126.616 82.7121 126.575 82.6899 126.533C82.5593 126.309 82.4524 126.075 82.3649 125.834C82.3485 125.791 82.3337 125.747 82.3203 125.702C82.2921 125.619 82.2684 125.534 82.2461 125.45C82.2343 125.411 82.2253 125.373 82.2164 125.332C82.2105 125.306 82.2031 125.278 82.1986 125.249C82.1897 125.214 82.1823 125.177 82.1764 125.141C82.1526 125.013 82.1348 124.889 82.1229 124.76C82.1229 124.754 82.1229 124.749 82.1229 124.746C82.1229 124.734 82.1215 124.725 82.1215 124.715C82.1185 124.678 82.1155 124.642 82.1126 124.604C82.1111 124.567 82.1081 124.531 82.1081 124.492C82.1081 124.484 82.1081 124.473 82.1081 124.461C82.1037 124.392 82.1037 124.32 82.1081 124.252C82.1081 124.246 82.1081 124.24 82.1081 124.236C82.1081 124.176 82.1126 124.115 82.117 124.055C82.117 124.022 82.12 123.992 82.1244 123.963C82.1274 123.908 82.1333 123.853 82.1408 123.796C82.1408 123.787 82.1408 123.779 82.1437 123.77C82.1526 123.695 82.1645 123.623 82.1779 123.55C82.1779 123.546 82.1779 123.543 82.1793 123.541C82.1927 123.464 82.209 123.388 82.2268 123.314C82.2625 123.161 82.307 123.008 82.3604 122.861C82.4183 122.697 82.488 122.535 82.5667 122.379C82.5919 122.329 82.6172 122.278 82.6439 122.231C82.6528 122.211 82.6632 122.195 82.6721 122.179C82.6973 122.134 82.721 122.091 82.7478 122.048C82.7715 122.008 82.7967 121.971 82.822 121.932C82.8294 121.92 82.8368 121.909 82.8427 121.898C82.8754 121.849 82.9095 121.8 82.9452 121.751C82.9511 121.744 82.9555 121.736 82.9615 121.729C82.9941 121.686 83.0268 121.643 83.0609 121.6C83.0624 121.598 83.0639 121.594 83.0669 121.591C83.0861 121.567 83.1054 121.543 83.1262 121.52C83.1648 121.472 83.2064 121.425 83.2494 121.38C83.2954 121.328 83.3444 121.278 83.3948 121.227C84.3061 120.316 85.5186 119.889 86.7134 119.945H86.7148C86.795 119.954 86.8766 119.96 86.9582 119.964H86.9597C88.1545 120.021 89.3655 119.593 90.2782 118.682C91.1999 117.76 91.6273 116.532 91.559 115.325C91.5561 115.267 91.5516 115.209 91.5457 115.151C91.4789 113.945 91.9063 112.716 92.8265 111.794C92.9512 111.67 93.0818 111.554 93.2168 111.448C94.9414 110.086 97.4525 110.202 99.045 111.794C99.9934 112.743 100.418 114.017 100.318 115.257C100.24 116.263 99.8138 117.245 99.045 118.014C98.1605 118.899 96.9939 119.328 95.8363 119.301C95.6731 119.277 95.5083 119.264 95.3406 119.262C94.1874 119.239 93.0239 119.668 92.1423 120.549C91.2607 121.431 90.8378 122.575 90.8556 123.722C90.8585 123.903 90.8719 124.086 90.8971 124.265C90.9194 125.414 90.489 126.57 89.6119 127.449C87.8932 129.167 85.1105 129.167 83.3919 127.449H83.3889Z" fill="white"/>
<path d="M105.428 136.57C105.356 136.57 105.281 136.57 105.21 136.564C105.145 136.561 105.079 136.557 105.016 136.551C104.983 136.548 104.952 136.545 104.921 136.541C104.875 136.536 104.83 136.53 104.786 136.523C104.756 136.52 104.726 136.515 104.698 136.509C104.67 136.505 104.642 136.5 104.615 136.495C104.569 136.487 104.523 136.477 104.477 136.466C104.459 136.463 104.441 136.459 104.424 136.453C104.377 136.444 104.331 136.432 104.285 136.419C104.035 136.352 103.793 136.263 103.561 136.155C103.52 136.135 103.478 136.115 103.437 136.092C103.358 136.054 103.281 136.011 103.205 135.966C103.169 135.947 103.135 135.926 103.101 135.904C103.077 135.889 103.054 135.874 103.03 135.858C102.999 135.839 102.968 135.818 102.938 135.797C102.831 135.724 102.73 135.647 102.631 135.565C102.628 135.561 102.623 135.558 102.62 135.557C102.611 135.549 102.604 135.543 102.597 135.536C102.568 135.512 102.54 135.488 102.512 135.463C102.484 135.438 102.457 135.414 102.43 135.387C102.423 135.381 102.415 135.374 102.408 135.367C102.356 135.321 102.306 135.27 102.26 135.22C102.255 135.215 102.251 135.211 102.248 135.208C102.206 135.165 102.166 135.12 102.126 135.074C102.104 135.05 102.085 135.028 102.067 135.004C102.03 134.963 101.995 134.92 101.961 134.875C101.955 134.868 101.949 134.862 101.945 134.855C101.899 134.797 101.856 134.736 101.813 134.675C101.81 134.672 101.808 134.669 101.808 134.668C101.764 134.604 101.721 134.538 101.681 134.473C101.598 134.34 101.522 134.2 101.455 134.058C101.38 133.9 101.314 133.737 101.259 133.571C101.242 133.517 101.224 133.464 101.209 133.41C101.201 133.391 101.197 133.372 101.193 133.354C101.179 133.305 101.166 133.258 101.154 133.209C101.142 133.164 101.133 133.12 101.124 133.074C101.121 133.06 101.118 133.047 101.115 133.035C101.104 132.977 101.093 132.918 101.084 132.858C101.084 132.849 101.081 132.841 101.08 132.832C101.072 132.778 101.065 132.725 101.059 132.67C101.059 132.667 101.057 132.664 101.057 132.66C101.055 132.63 101.052 132.599 101.049 132.568C101.043 132.507 101.038 132.444 101.037 132.382C101.032 132.312 101.031 132.242 101.031 132.171C101.031 130.882 101.586 129.722 102.47 128.918H102.472C102.536 128.866 102.597 128.813 102.657 128.758H102.659C103.543 127.952 104.098 126.793 104.098 125.503C104.098 124.2 103.532 123.029 102.631 122.223C102.588 122.185 102.543 122.146 102.499 122.109C101.598 121.303 101.031 120.132 101.031 118.829C101.031 118.652 101.041 118.479 101.062 118.308C101.319 116.125 103.175 114.431 105.428 114.431C106.77 114.431 107.971 115.033 108.776 115.979C109.432 116.747 109.826 117.743 109.826 118.829C109.826 120.08 109.305 121.208 108.466 122.008C108.334 122.107 108.208 122.214 108.088 122.331C107.255 123.13 106.736 124.256 106.736 125.503C106.736 126.739 107.246 127.858 108.07 128.657C108.201 128.783 108.339 128.903 108.484 129.012C109.312 129.809 109.826 130.931 109.826 132.171C109.826 134.601 107.858 136.57 105.428 136.57Z" fill="white"/>
<path d="M127.448 127.47C127.396 127.522 127.343 127.572 127.29 127.62C127.241 127.664 127.192 127.707 127.143 127.747C127.117 127.768 127.094 127.789 127.068 127.807C127.033 127.836 126.997 127.863 126.96 127.89C126.936 127.909 126.913 127.927 126.889 127.942C126.865 127.958 126.843 127.976 126.819 127.991C126.782 128.017 126.742 128.043 126.702 128.068C126.687 128.078 126.671 128.087 126.654 128.096C126.616 128.123 126.574 128.147 126.533 128.169C126.309 128.299 126.074 128.406 125.834 128.494C125.791 128.51 125.746 128.525 125.702 128.538C125.618 128.567 125.534 128.59 125.449 128.613C125.411 128.624 125.372 128.633 125.332 128.642C125.305 128.648 125.277 128.656 125.249 128.66C125.213 128.669 125.176 128.676 125.141 128.682C125.013 128.706 124.888 128.724 124.759 128.736C124.753 128.736 124.749 128.736 124.746 128.736C124.734 128.736 124.725 128.737 124.715 128.737C124.677 128.74 124.642 128.743 124.603 128.746C124.566 128.748 124.531 128.751 124.492 128.751C124.483 128.751 124.473 128.751 124.461 128.751C124.391 128.755 124.32 128.755 124.252 128.751C124.246 128.751 124.24 128.751 124.235 128.751C124.176 128.751 124.115 128.746 124.054 128.742C124.021 128.742 123.992 128.739 123.962 128.734C123.907 128.731 123.852 128.725 123.796 128.718C123.787 128.718 123.778 128.718 123.769 128.715C123.695 128.706 123.622 128.694 123.55 128.681C123.545 128.681 123.542 128.681 123.541 128.679C123.463 128.666 123.388 128.65 123.314 128.632C123.161 128.596 123.008 128.552 122.861 128.498C122.696 128.44 122.534 128.371 122.379 128.292C122.328 128.267 122.278 128.242 122.23 128.215C122.211 128.206 122.195 128.196 122.178 128.187C122.134 128.161 122.091 128.138 122.048 128.111C122.008 128.087 121.97 128.062 121.932 128.037C121.92 128.029 121.908 128.022 121.898 128.016C121.849 127.983 121.8 127.949 121.751 127.914C121.743 127.908 121.736 127.903 121.728 127.897C121.685 127.865 121.642 127.832 121.599 127.798C121.598 127.796 121.593 127.795 121.59 127.792C121.567 127.773 121.543 127.753 121.519 127.732C121.472 127.694 121.424 127.652 121.38 127.609C121.328 127.563 121.277 127.514 121.227 127.464C120.316 126.553 119.888 125.34 119.945 124.145C119.953 124.062 119.959 123.982 119.964 123.9C120.02 122.704 119.593 121.492 118.682 120.58C117.76 119.659 116.531 119.231 115.324 119.3C115.267 119.303 115.209 119.307 115.151 119.313C113.944 119.38 112.715 118.952 111.794 118.032C111.669 117.908 111.553 117.777 111.448 117.642C110.085 115.917 110.201 113.406 111.794 111.814C112.742 110.865 114.017 110.441 115.256 110.54C116.262 110.619 117.245 111.045 118.014 111.814C118.898 112.698 119.327 113.865 119.3 115.022C119.277 115.186 119.263 115.35 119.262 115.518C119.238 116.671 119.667 117.835 120.549 118.716C121.423 119.591 122.574 120.021 123.722 120.003C123.903 120 124.085 119.987 124.265 119.962C125.414 119.939 126.57 120.37 127.448 121.247C129.167 122.965 129.167 125.748 127.448 127.467V127.47Z" fill="white"/>
<path d="M105.428 109.848C107.857 109.848 109.826 107.879 109.826 105.45C109.826 103.022 107.857 101.053 105.428 101.053C103 101.053 101.031 103.022 101.031 105.45C101.031 107.879 103 109.848 105.428 109.848Z" fill="white"/>
</g>
<circle cx="105.429" cy="105.339" r="47.5457" fill="url(#paint3_radial_40000272_691)" style="mix-blend-mode:soft-light"/>
<g filter="url(#filter2_f_40000272_691)">
<circle cx="105.429" cy="105.339" r="46.4552" stroke="url(#paint4_linear_40000272_691)" stroke-width="2.18099"/>
</g>
</g>
</g>
<defs>
<filter id="filter0_f_40000272_691" x="3.8147e-06" y="3.8147e-06" width="210.858" height="210.858" filterUnits="userSpaceOnUse" color-interpolation-filters="sRGB">
<feFlood flood-opacity="0" result="BackgroundImageFix"/>
<feBlend mode="normal" in="SourceGraphic" in2="BackgroundImageFix" result="shape"/>
<feGaussianBlur stdDeviation="24.1436" result="effect1_foregroundBlur_40000272_691"/>
</filter>
<clipPath id="bgblur_1_40000272_691_clip_path" transform="translate(-55.6587 -55.6592)"><rect x="57.8833" y="57.8838" width="95.0911" height="95.0911" rx="47.5456"/>
</clipPath><filter id="filter2_f_40000272_691" x="49.203" y="49.1126" width="112.452" height="112.452" filterUnits="userSpaceOnUse" color-interpolation-filters="sRGB">
<feFlood flood-opacity="0" result="BackgroundImageFix"/>
<feBlend mode="normal" in="SourceGraphic" in2="BackgroundImageFix" result="shape"/>
<feGaussianBlur stdDeviation="4.34017" result="effect1_foregroundBlur_40000272_691"/>
</filter>
<linearGradient id="paint0_linear_40000272_691" x1="129.788" y1="46.4368" x2="69.6445" y2="162.571" gradientUnits="userSpaceOnUse">
<stop stop-color="white"/>
<stop offset="0.32888" stop-color="#FF8453"/>
<stop offset="0.737666" stop-color="#AA5C3D"/>
<stop offset="1" stop-color="#442518"/>
</linearGradient>
<radialGradient id="paint1_radial_40000272_691" cx="0" cy="0" r="1" gradientUnits="userSpaceOnUse" gradientTransform="translate(79.2665 129.788) rotate(-44.3124) scale(89.5992)">
<stop/>
<stop offset="1" stop-color="white"/>
</radialGradient>
<linearGradient id="paint2_linear_40000272_691" x1="125.697" y1="56.3442" x2="75.6539" y2="152.975" gradientUnits="userSpaceOnUse">
<stop stop-color="white"/>
<stop offset="0.32888" stop-color="#FF8453"/>
<stop offset="0.737666" stop-color="#AA5C3D"/>
<stop offset="1" stop-color="#442518"/>
</linearGradient>
<radialGradient id="paint3_radial_40000272_691" cx="0" cy="0" r="1" gradientUnits="userSpaceOnUse" gradientTransform="translate(88.8627 120.384) rotate(-44.3124) scale(89.5992)">
<stop/>
<stop offset="1" stop-color="white"/>
</radialGradient>
<linearGradient id="paint4_linear_40000272_691" x1="136.669" y1="67.7061" x2="78.0724" y2="145.424" gradientUnits="userSpaceOnUse">
<stop stop-color="white" stop-opacity="0"/>
<stop offset="1" stop-color="white"/>
</linearGradient>
<clipPath id="clip0_40000272_691">
<rect x="57.8833" y="57.8838" width="95.0911" height="95.0911" rx="47.5456" fill="white"/>
</clipPath>
</defs>
</svg>
